<?xml version="1.0" encoding="UTF-8" standalone="no"?>
<!-- Created with Inkscape (http://www.inkscape.org/) -->

<svg
   version="1.1"
   id="svg1"
   width="657.62823"
   height="658.02814"
   viewBox="0 0 657.62823 658.02814"
   sodipodi:docname="junguitu_dronda_maitane_RPMI_02_TareaEvaluativa_imagen_tamaño.svg"
   inkscape:version="1.3 (0e150ed6c4, 2023-07-21)"
   xmlns:inkscape="http://www.inkscape.org/namespaces/inkscape"
   xmlns:sodipodi="http://sodipodi.sourceforge.net/DTD/sodipodi-0.dtd"
   xmlns="http://www.w3.org/2000/svg"
   xmlns:svg="http://www.w3.org/2000/svg">
  <defs
     id="defs1" />
  <sodipodi:namedview
     id="namedview1"
     pagecolor="#ffffff"
     bordercolor="#000000"
     borderopacity="0.25"
     inkscape:showpageshadow="2"
     inkscape:pageopacity="0.0"
     inkscape:pagecheckerboard="0"
     inkscape:deskcolor="#d1d1d1"
     showgrid="false"
     inkscape:zoom="0.4497063"
     inkscape:cx="4.4473471"
     inkscape:cy="252.38695"
     inkscape:window-width="2400"
     inkscape:window-height="1271"
     inkscape:window-x="2391"
     inkscape:window-y="-9"
     inkscape:window-maximized="1"
     inkscape:current-layer="g1" />
  <g
     inkscape:groupmode="layer"
     inkscape:label="Image"
     id="g1"
     transform="translate(-91.565685,-72.33239)">
    <path
       style="fill:#000000"
       d="M 392.67104,729.72931 C 367.8547,727.4081 334.51436,720.20689 311.71785,712.24416 192.95941,670.76228 107.50403,563.80475 93.216057,438.76327 c -3.08462,-26.99512 -1.70986,-71.06902 2.99445,-96 12.393513,-65.68078 42.089143,-123.36084 87.960533,-170.85238 51.97524,-53.81097 118.94567,-87.132822 196.5,-97.770664 17.40637,-2.387567 61.39291,-2.415956 79.21607,-0.05112 86.95246,11.537117 163.98459,54.488894 217.32054,121.174164 38.25112,47.82488 61.21519,102.02047 70.12664,165.5 2.4795,17.66238 2.4795,63.33762 0,81 -5.63064,40.10909 -15.76592,73.28136 -32.69223,107 -49.62551,98.85819 -143.40931,165.08027 -254.33555,179.58997 -14.23739,1.86232 -53.8258,2.66776 -67.63547,1.37607 z m 193.5,-124.33718 c 18.80492,-5.64757 32.35685,-19.18799 38.1613,-38.12886 1.75228,-5.71798 1.8387,-13.52062 1.8387,-166 0,-152.47939 -0.0864,-160.28203 -1.8387,-166 -5.80016,-18.92687 -19.23443,-32.36114 -38.1613,-38.1613 -5.71764,-1.75217 -13.50599,-1.8387 -165.5,-1.8387 -127.11032,0 -160.48582,0.26211 -164.35457,1.29073 -14.39911,3.82842 -28.53203,14.75591 -34.99762,27.05995 -7.10424,13.51939 -6.64781,1.32214 -6.64781,177.64932 0,174.78929 -0.37701,163.86721 6.09927,176.69665 3.57876,7.08947 12.0216,16.38902 18.86753,20.78204 5.86616,3.7643 14.71598,6.89428 22.5332,7.96947 3.3,0.45388 76.2,0.74816 162,0.65395 147.11219,-0.16154 156.34184,-0.27396 162,-1.97325 z m -173.1,-197.02886 c -3.59583,-3.59584 -4.17728,-6.39125 -2.34727,-11.2849 0.579,-1.54831 24.76075,-26.5526 53.73723,-55.5651 l 52.68451,-52.75 h -32.63364 -32.63364 l -3.21377,-3.66028 c -2.81216,-3.20288 -3.14523,-4.17134 -2.66533,-7.75 0.38583,-2.87719 1.46085,-4.90505 3.62595,-6.83972 l 3.07752,-2.75 h 46.53388 c 50.47591,0 50.75994,0.0292 53.23988,5.47205 0.87159,1.91293 1.19468,15.21205 1.19468,49.175 v 46.55295 l -3.4,3.4 c -2.64144,2.64144 -4.22549,3.4 -7.1,3.4 -2.87451,0 -4.45856,-0.75856 -7.1,-3.4 l -3.4,-3.4 V 336.62604 304.2888 l -52.75,52.68451 c -29.0125,28.97648 -54.01679,53.15823 -55.5651,53.73723 -4.89365,1.83001 -7.68906,1.24856 -11.2849,-2.34727 z"
       id="path1" />
  </g>
</svg>
