<?xml version="1.0" encoding="UTF-8" standalone="no"?>
<!-- Created with Inkscape (http://www.inkscape.org/) -->

<svg
   version="1.1"
   id="svg1"
   width="399.47214"
   height="583.26727"
   viewBox="0 0 399.47214 583.26727"
   sodipodi:docname="junguitu_dronda_maitane_RPMI_02_TareaEvaluativa_imagen_musica.svg"
   inkscape:version="1.3 (0e150ed6c4, 2023-07-21)"
   xmlns:inkscape="http://www.inkscape.org/namespaces/inkscape"
   xmlns:sodipodi="http://sodipodi.sourceforge.net/DTD/sodipodi-0.dtd"
   xmlns="http://www.w3.org/2000/svg"
   xmlns:svg="http://www.w3.org/2000/svg">
  <defs
     id="defs1" />
  <sodipodi:namedview
     id="namedview1"
     pagecolor="#ffffff"
     bordercolor="#000000"
     borderopacity="0.25"
     inkscape:showpageshadow="2"
     inkscape:pageopacity="0.0"
     inkscape:pagecheckerboard="0"
     inkscape:deskcolor="#d1d1d1"
     showgrid="false"
     inkscape:zoom="0.53204146"
     inkscape:cx="372.15145"
     inkscape:cy="495.26216"
     inkscape:window-width="2400"
     inkscape:window-height="1271"
     inkscape:window-x="2391"
     inkscape:window-y="-9"
     inkscape:window-maximized="1"
     inkscape:current-layer="g1" />
  <g
     inkscape:groupmode="layer"
     inkscape:label="Image"
     id="g1"
     transform="translate(-60.668535,-48.728461)">
    <path
       style="fill:#000000"
       d="m 337.84196,630.94787 c -17.72035,-3.97509 -32.9516,-15.84792 -40.71228,-31.73543 -4.44159,-9.09273 -6.13629,-16.50246 -6.13629,-26.8297 0,-26.87552 17.0182,-48.91438 44,-56.98077 6.87203,-2.05444 20.02714,-2.48613 26.70616,-0.87637 2.14838,0.5178 4.05041,0.7972 4.22672,0.62088 0.17631,-0.17631 -9.41146,-38.65607 -21.30615,-85.51057 -11.8947,-46.85451 -21.62673,-86.74085 -21.62673,-88.63633 0,-9.69241 10.41565,-16.73695 19.57461,-13.23911 4.673,1.78464 7.85718,5.55149 9.95561,11.77742 3.23125,9.58692 9.43518,15.76176 19.11089,19.02127 5.75482,1.93866 10.71849,2.07292 17.35889,0.46953 7.03351,-1.69831 20.44764,-1.54757 27.71636,0.31146 12.03398,3.07777 23.94985,10.56252 31.31907,19.67254 4.31056,5.32883 10.30106,17.12502 11.69899,23.03707 1.60669,6.79493 -1.60359,14.09495 -7.41016,16.85035 -3.42109,1.62341 -10.24965,1.70252 -13.24523,0.15345 -2.58618,-1.33737 -7.27903,-6.42493 -7.27903,-7.89127 0,-2.77362 -5.68964,-12.44839 -9.28396,-15.78664 -8.09647,-7.51965 -16.84491,-9.46158 -30.44322,-6.75764 -7.38032,1.46753 -19.33727,1.31127 -24.87282,-0.32506 -1.43,-0.42271 -2.6,-0.62004 -2.6,-0.43851 0,0.18154 9.94675,39.48641 22.10389,87.34416 19.22988,75.70026 22.15544,88.01039 22.50033,94.67652 1.4003,27.06471 -15.54458,51.28033 -41.70341,59.59758 -8.39755,2.67002 -21.43451,3.31859 -29.65224,1.47517 z M 141.39339,500.68782 C 106.13728,494.39413 78.983098,471.9147 66.409338,438.61269 52.219068,401.0293 65.059608,355.7916 96.935128,331.0692 c 15.764442,-12.22678 31.242822,-18.48431 50.693992,-20.49434 25.50288,-2.6354 52.69519,6.28269 72.12187,23.65336 4.58746,4.10195 5.22609,4.44443 5.77713,3.09811 0.34073,-0.8325 17.57498,-62.53364 38.29833,-137.11365 20.72335,-74.58 38.39468,-137.107113 39.26962,-138.949141 3.56562,-7.506713 11.95474,-12.491019 21.09732,-12.534748 9.62632,-0.04604 17.18786,4.732688 21.32449,13.476617 2.64791,5.597113 2.92764,10.529115 1.0894,19.207572 -3.34482,15.791153 1.04926,31.15546 12.29652,42.9959 6.63392,6.98379 11.27102,9.67947 24.49371,14.23884 5.15725,1.7783 11.57944,4.34515 14.27153,5.70411 25.66463,12.95546 44.37125,37.44473 50.6147,66.26085 2.06689,9.53958 2.08632,29.91448 0.0369,38.67038 -2.03175,8.68026 -3.26822,11.30746 -7.4015,15.72627 -9.13869,9.76999 -24.50003,10.02333 -33.76651,0.55687 -6.21727,-6.35145 -8.30463,-14.23932 -6.1821,-23.36141 2.70942,-11.64436 1.49548,-23.01961 -3.58486,-33.59211 -6.08018,-12.65321 -15.03581,-19.94254 -31.39902,-25.55687 -15.39896,-5.28347 -26.286,-11.40872 -37.04204,-20.84051 l -4.0488,-3.55033 -38.682,138.97386 c -21.27511,76.43563 -39.7124,141.47581 -40.97176,144.53374 -11.8107,28.67826 -35.84871,49.21226 -66.64864,56.93328 -9.94843,2.49391 -27.83136,3.25439 -37.2,1.58197 z"
       id="path1" />
  </g>
</svg>
