<?xml version="1.0" encoding="UTF-8" standalone="no"?>
<!-- Created with Inkscape (http://www.inkscape.org/) -->

<svg
   version="1.1"
   id="svg1"
   width="361.32895"
   height="556.0199"
   viewBox="0 0 361.32895 556.0199"
   sodipodi:docname="junguitu_dronda_maitane_RPMI_02_TareaEvaluativa_imagen_audio.svg"
   inkscape:version="1.3 (0e150ed6c4, 2023-07-21)"
   xmlns:inkscape="http://www.inkscape.org/namespaces/inkscape"
   xmlns:sodipodi="http://sodipodi.sourceforge.net/DTD/sodipodi-0.dtd"
   xmlns="http://www.w3.org/2000/svg"
   xmlns:svg="http://www.w3.org/2000/svg">
  <defs
     id="defs1" />
  <sodipodi:namedview
     id="namedview1"
     pagecolor="#ffffff"
     bordercolor="#000000"
     borderopacity="0.25"
     inkscape:showpageshadow="2"
     inkscape:pageopacity="0.0"
     inkscape:pagecheckerboard="0"
     inkscape:deskcolor="#d1d1d1"
     showgrid="false"
     inkscape:zoom="0.81861837"
     inkscape:cx="262.63764"
     inkscape:cy="165.52279"
     inkscape:window-width="2400"
     inkscape:window-height="1271"
     inkscape:window-x="2391"
     inkscape:window-y="-9"
     inkscape:window-maximized="1"
     inkscape:current-layer="g1" />
  <g
     inkscape:groupmode="layer"
     inkscape:label="Image"
     id="g1"
     transform="translate(-82.345117,-53.414854)">
    <path
       style="fill:#000000"
       d="M 162.52436,608.11102 C 140.54181,604.11008 123.60599,595.19939 109.17433,580.04119 97.480581,567.75875 90.475241,555.0436 85.821611,537.6545 c -7.74597,-28.94417 -2.25688,-63.77444 13.56643,-86.08387 6.095239,-8.59374 14.754579,-14.73193 20.810279,-14.7514 6.0766,-0.0195 13.72053,6.73953 15.63581,13.82582 2.08461,7.71276 -0.17543,14.43918 -10.1357,30.16636 -17.62699,27.83285 -17.42488,43.75342 0.86481,68.12303 15.15229,20.18926 34.57257,29.46314 59.60459,28.46333 11.78881,-0.47086 19.78151,-2.92369 27.74062,-8.51315 15.03072,-10.55567 23.17632,-25.47376 33.44797,-61.25766 2.90246,-10.11145 6.49548,-20.91145 7.98448,-24 3.25928,-6.76053 14.32209,-20.67675 33.73449,-42.43552 38.24579,-42.86858 54.80368,-63.31875 71.23476,-87.98002 23.18297,-34.79512 36.1902,-65.23681 40.61903,-95.06347 1.499,-10.09528 1.70157,-31.59379 0.40854,-43.35844 -1.97917,-18.00738 -6.79039,-34.89383 -14.35352,-50.37809 -9.87634,-20.22013 -22.65925,-35.10387 -40.26051,-46.87716 -9.30135,-6.22157 -15.83829,-9.49118 -26.21681,-13.11298 -30.83401,-10.760176 -71.0995,-10.907876 -101.17377,-0.37111 -39.01712,13.66995 -65.88876,45.74449 -76.79853,91.66826 -3.81879,16.0749 -4.48928,25.13224 -4.21728,56.96924 l 0.25053,29.32375 -1.88193,3.82182 c -3.59537,7.30147 -11.66497,8.36934 -16.73735,2.21489 -8.70614,-10.56339 -14.31469,-45.00582 -12.23609,-75.14253 2.13056,-30.88987 8.41643,-52.75672 22.03007,-76.63667 19.73816,-34.62308 45.79827,-58.69609 77.66727,-71.745095 19.45891,-7.967597 37.80049,-11.234046 62.35803,-11.10533 89.28143,0.467958 150.26861,46.437839 168.73983,127.189845 3.1481,13.76279 4.56332,25.86474 5.03925,43.09221 0.49947,18.07948 -0.43913,31.06088 -3.40629,47.11086 -6.12675,33.14089 -16.41778,56.8396 -36.90182,84.97939 -15.15267,20.81586 -22.90868,29.33692 -68.64909,75.4206 -20.3076,20.46 -39.35321,40.26 -42.32359,44 -8.88567,11.18795 -10.47061,14.65923 -14.47557,31.70383 -6.26583,26.66653 -10.32119,38.72579 -18.13982,53.94165 -12.93815,25.17898 -30.27402,40.10343 -53.95616,46.45088 -9.14059,2.44993 -31.80572,2.87164 -43.17021,0.80325 z m 22.6616,-163.74359 c -16.81431,-4.07594 -27.23291,-17.28712 -28.35562,-35.95602 -0.50074,-8.32652 0.79887,-15.11025 4.4032,-22.98398 2.72594,-5.95485 6.44092,-10.94494 18.92146,-25.41601 11.88779,-13.78378 17.63061,-22.36515 20.48633,-30.61228 2.92364,-8.44327 3.55863,-13.84935 2.34894,-19.99807 -1.72377,-8.76175 -5.99005,-15.23773 -18.83443,-28.58965 -16.31131,-16.95585 -22.38187,-29.86218 -23.32961,-49.6 -1.80827,-37.65955 17.88996,-74.22344 49.77615,-92.39457 21.77578,-12.40946 49.96223,-15.14617 74.27049,-7.21116 19.38639,6.32836 39.19767,20.07738 50.00921,34.70638 11.87111,16.06269 16.97698,33.16199 16.99021,56.89935 0.0102,18.29438 -2.79211,34.67317 -8.58652,50.18601 -9.55311,25.57564 -24.10281,44.22496 -34.49225,44.211 -3.11952,-0.004 -7.28436,-2.75535 -7.90308,-5.22052 -1.12343,-4.4761 0.48888,-9.03178 9.61806,-27.17649 5.97639,-11.87837 9.95557,-20.87401 11.22678,-25.38013 9.64265,-34.18058 -3.46128,-74.56841 -29.57575,-91.15587 -9.8056,-6.22835 -16.96417,-8.45454 -29.60625,-9.20702 -24.05989,-1.4321 -45.10345,10.71163 -55.88665,32.25083 -4.63282,9.25395 -5.68115,13.87971 -5.68664,25.09219 -0.005,9.85301 0.038,10.09025 2.91157,16.13972 5.11174,10.76123 9.01523,15.59044 32.02008,39.61363 18.61667,19.44078 26.88657,31.69262 30.7193,45.51061 5.1777,18.66691 -0.80044,53.06005 -13.70473,78.84546 -17.61073,35.18982 -43.49944,53.32278 -67.74025,47.44659 z"
       id="path1" />
  </g>
</svg>
