<?xml version="1.0" encoding="UTF-8" standalone="no"?>
<!-- Created with Inkscape (http://www.inkscape.org/) -->

<svg
   version="1.1"
   id="svg1"
   width="451.33389"
   height="450.6767"
   viewBox="0 0 451.33389 450.67669"
   sodipodi:docname="junguitu_dronda_maitane_RPMI_02_TareaEvaluativa_imagen_play.svg"
   inkscape:version="1.3 (0e150ed6c4, 2023-07-21)"
   xmlns:inkscape="http://www.inkscape.org/namespaces/inkscape"
   xmlns:sodipodi="http://sodipodi.sourceforge.net/DTD/sodipodi-0.dtd"
   xmlns="http://www.w3.org/2000/svg"
   xmlns:svg="http://www.w3.org/2000/svg">
  <defs
     id="defs1" />
  <sodipodi:namedview
     id="namedview1"
     pagecolor="#ffffff"
     bordercolor="#000000"
     borderopacity="0.25"
     inkscape:showpageshadow="2"
     inkscape:pageopacity="0.0"
     inkscape:pagecheckerboard="0"
     inkscape:deskcolor="#d1d1d1"
     showgrid="false"
     inkscape:zoom="0.33462206"
     inkscape:cx="-1150.5518"
     inkscape:cy="-264.47748"
     inkscape:window-width="2400"
     inkscape:window-height="1271"
     inkscape:window-x="2391"
     inkscape:window-y="-9"
     inkscape:window-maximized="1"
     inkscape:current-layer="g1" />
  <g
     inkscape:groupmode="layer"
     inkscape:label="Image"
     id="g1"
     transform="translate(-28.48205,-52.741009)">
    <path
       style="fill:#000000"
       d="M 228.04538,502.25794 C 209.0365,499.97945 189.04894,495.06268 172.59293,488.6171 107.11148,462.96899 57.763883,409.60101 37.582433,342.6072 c -6.54657,-21.73182 -9.04788,-39.7318 -9.0985,-65.47492 -0.0405,-20.59733 0.54849,-27.0178 4.1098,-44.8 10.91922,-54.52142 43.93242,-105.29517 89.851647,-138.190325 23.98237,-17.180244 53.20787,-30.247702 81.6,-36.485419 20.06932,-4.409207 25.27273,-4.924868 49.6,-4.915401 19.92949,0.0078 24.2551,0.241686 34.35762,1.858079 24.38317,3.901283 44.5471,10.33428 66.84238,21.32505 45.74012,22.548241 83.62578,61.609936 104.5187,107.763126 24.7618,54.69968 27.12866,116.49376 6.60939,172.55794 -4.3085,11.77197 -15.45068,33.75736 -22.74869,44.88695 -37.45245,57.11568 -96.32698,93.36371 -164.3745,101.20253 -12.80708,1.47533 -38.17555,1.43695 -50.8049,-0.0769 z m 115.6,-224.4098 c 0,-0.33756 -29.16,-22.47624 -64.8,-49.19708 -35.64,-26.72084 -65.97,-49.46655 -67.4,-50.54602 l -2.6,-1.96267 v 101.68971 101.68971 l 67.4,-50.52996 c 37.07,-27.79148 67.4,-50.80614 67.4,-51.14369 z"
       id="path1" />
  </g>
</svg>
