<?xml version="1.0" encoding="UTF-8" standalone="no"?>
<!-- Created with Inkscape (http://www.inkscape.org/) -->

<svg
   version="1.1"
   id="svg1"
   width="484.51849"
   height="484.65994"
   viewBox="0 0 484.51849 484.65994"
   sodipodi:docname="junguitu_dronda_maitane_RPMI_02_TareaEvaluativa_imagen_salida.svg"
   inkscape:version="1.3 (0e150ed6c4, 2023-07-21)"
   xmlns:inkscape="http://www.inkscape.org/namespaces/inkscape"
   xmlns:sodipodi="http://sodipodi.sourceforge.net/DTD/sodipodi-0.dtd"
   xmlns="http://www.w3.org/2000/svg"
   xmlns:svg="http://www.w3.org/2000/svg">
  <defs
     id="defs1" />
  <sodipodi:namedview
     id="namedview1"
     pagecolor="#ffffff"
     bordercolor="#000000"
     borderopacity="0.25"
     inkscape:showpageshadow="2"
     inkscape:pageopacity="0.0"
     inkscape:pagecheckerboard="0"
     inkscape:deskcolor="#d1d1d1"
     showgrid="false"
     inkscape:zoom="0.32666603"
     inkscape:cx="685.71563"
     inkscape:cy="322.95982"
     inkscape:window-width="2400"
     inkscape:window-height="1271"
     inkscape:window-x="2391"
     inkscape:window-y="-9"
     inkscape:window-maximized="1"
     inkscape:current-layer="g1" />
  <g
     inkscape:groupmode="layer"
     inkscape:label="Image"
     id="g1"
     transform="translate(-80.436595,-43.401704)">
    <path
       style="fill:#000000"
       d="m 122.95508,526.89795 c -2.86,-0.61249 -8.59571,-2.79216 -12.74601,-4.8437 C 97.253015,515.64992 88.095465,504.7865 83.080455,489.87209 l -2.06235,-6.13332 -0.29076,-58.6 -0.29075,-58.6 h 26.853605 26.85362 l 0.20563,53.8 0.20563,53.8 188.6,0.20167 188.6,0.20167 V 285.73877 96.935433 l -188.6,0.20167 -188.6,0.20167 -0.20563,53.799997 -0.20563,53.8 H 107.2902 80.436595 l 0.32783,-58.6 c 0.2795,-49.960297 0.5107,-59.208769 1.56812,-62.729058 4.76976,-15.879063 15.06812,-28.209892 29.022535,-34.750367 12.782,-5.99096 -3.39132,-5.588745 214.8,-5.34188 187.77159,0.212447 195.7761,0.280458 200,1.699311 17.98973,6.042943 30.97373,18.641956 36.4585,35.37746 l 2.3415,7.144533 v 198.400001 198.4 l -2.25891,6.39232 c -4.11597,11.64751 -10.44462,20.17007 -19.91817,26.82309 -6.92763,4.86508 -15.66533,8.53743 -22.75048,9.56173 -3.49533,0.50533 -75.27272,0.77391 -198.67244,0.74341 -161.91593,-0.04 -194.04202,-0.22808 -198.4,-1.16137 z m 167.72374,-125.71356 -19.07626,-18.88626 34.67039,-34.67726 34.67039,-34.67726 -129.99413,-0.20242 -129.994125,-0.20242 v -26.8 -26.8 l 129.994125,-0.20242 129.99413,-0.20242 -34.68417,-34.69106 -34.68418,-34.69105 19.09004,-18.86709 19.09005,-18.8671 67.1994,67.16057 67.19941,67.16057 -67.19941,67.16593 -67.1994,67.16594 z"
       id="path1" />
  </g>
</svg>
