<?xml version="1.0" encoding="UTF-8" standalone="no"?>
<!-- Created with Inkscape (http://www.inkscape.org/) -->

<svg
   version="1.1"
   id="svg1"
   width="506.60065"
   height="574.10828"
   viewBox="0 0 506.60065 574.10828"
   sodipodi:docname="junguitu_dronda_maitane_RPMI_02_TareaEvaluativa_imagen_creditos.svg"
   inkscape:version="1.3 (0e150ed6c4, 2023-07-21)"
   xmlns:inkscape="http://www.inkscape.org/namespaces/inkscape"
   xmlns:sodipodi="http://sodipodi.sourceforge.net/DTD/sodipodi-0.dtd"
   xmlns="http://www.w3.org/2000/svg"
   xmlns:svg="http://www.w3.org/2000/svg">
  <defs
     id="defs1" />
  <sodipodi:namedview
     id="namedview1"
     pagecolor="#ffffff"
     bordercolor="#000000"
     borderopacity="0.25"
     inkscape:showpageshadow="2"
     inkscape:pageopacity="0.0"
     inkscape:pagecheckerboard="0"
     inkscape:deskcolor="#d1d1d1"
     showgrid="false"
     inkscape:zoom="0.86131033"
     inkscape:cx="558.45144"
     inkscape:cy="276.90368"
     inkscape:window-width="2400"
     inkscape:window-height="1271"
     inkscape:window-x="2391"
     inkscape:window-y="-9"
     inkscape:window-maximized="1"
     inkscape:current-layer="g1" />
  <g
     inkscape:groupmode="layer"
     inkscape:label="Image"
     id="g1"
     transform="translate(-25.292064,-29.015235)">
    <path
       style="fill:#000000"
       d="m 183.36613,602.74564 c -21.26413,-1.29655 -31.44007,-2.04992 -37.2,-2.75408 C 105.5051,595.02071 73.752436,588.23213 31.929096,575.56819 l -6.637032,-2.00967 0.25768,-60.94029 c 0.25253,-59.72407 0.29381,-61.11218 2.06829,-69.55267 5.682182,-27.02792 17.859202,-48.95288 37.902932,-68.24494 20.81146,-20.03101 47.599304,-32.14361 76.805114,-34.7288 11.74123,-1.03929 95.13887,-1.03929 106.8801,0 16.3145,1.4441 29.56554,5.10905 44.74352,12.37509 30.03756,14.37966 54.26156,41.73541 64.47544,72.81103 6.58747,20.04229 7.08581,26.824 6.78498,92.33413 l -0.244,53.13414 -7.2801,3.73464 c -26.75963,13.72751 -73.72422,24.40025 -123.11989,27.9791 -10.09564,0.73146 -41.05592,0.90421 -51.2,0.28569 z M 390.15955,479.08352 c -0.007,-21.34989 -0.64004,-29.60588 -3.26721,-42.60558 C 376.563,385.3664 336.74748,340.69879 286.74956,324.13132 l -5.41656,-1.79485 5.99349,-6.37112 c 18.40507,-19.5647 28.82977,-44.03244 32.07687,-75.2874 l 0.47789,-4.6 43.74243,0.0139 c 24.05834,0.008 47.16244,0.36822 51.34244,0.80133 31.01944,3.21407 57.25625,15.51103 78.39999,36.74538 15.17741,15.24245 25.31347,31.53561 31.62045,50.82815 6.09442,18.64235 6.15422,19.41424 6.55151,84.56934 l 0.35463,58.15806 -5.81074,2.92625 c -25.86074,13.02325 -74.36262,24.78676 -113.51584,27.53181 -6.38,0.4473 -14.03,0.99861 -17,1.22513 l -5.4,0.41185 z M 184.16613,332.02997 c -8.0125,-1.07839 -20.38601,-4.36998 -27.06195,-7.19902 -30.76918,-13.03894 -53.65505,-42.0121 -59.387994,-75.18429 -3.6583,-21.16782 -0.55167,-42.93501 8.808964,-61.72157 24.41384,-48.99803 83.77314,-69.47286 132.8824,-45.8352 14.74226,7.09587 26.72474,16.84281 36.33402,29.55529 14.19194,18.77505 20.37338,37.51177 20.33329,61.63277 -0.0303,18.26309 -3.46209,31.87793 -11.87096,47.09596 -14.79559,26.77646 -38.78112,44.3852 -68.83777,50.53655 -7.74391,1.58486 -23.53296,2.15139 -31.2,1.11951 z M 346.96612,228.35444 c -8.8215,-1.35399 -24.42933,-6.30582 -26.54548,-8.42198 -0.79999,-0.79998 -1.45452,-2.36079 -1.45452,-3.46847 0,-1.10767 -0.75469,-5.49727 -1.67709,-9.75466 -6.23969,-28.79971 -23.35825,-55.14681 -47.43518,-73.00729 l -7.87532,-5.84198 0.54751,-6.49105 c 2.4374,-28.897028 16.84953,-54.915648 40.04008,-72.28551 18.12318,-13.574369 43.17394,-21.272837 64.8,-19.913998 25.54586,1.605134 47.76609,11.810974 65.49613,30.082632 19.21664,19.803678 28.55017,42.687776 28.56081,70.025816 0.008,21.20699 -4.99688,37.84654 -16.72432,55.6 -21.07344,31.90178 -60.08302,49.25525 -97.73262,43.47649 z"
       id="path1" />
  </g>
</svg>
