<?xml version="1.0" encoding="UTF-8" standalone="no"?>
<!-- Created with Inkscape (http://www.inkscape.org/) -->

<svg
   version="1.1"
   id="svg1"
   width="439.98569"
   height="554.84442"
   viewBox="0 0 439.98569 554.84442"
   sodipodi:docname="junguitu_dronda_maitane_RPMI_02_TareaEvaluativa_imagen_brillo.svg"
   inkscape:version="1.3 (0e150ed6c4, 2023-07-21)"
   xmlns:inkscape="http://www.inkscape.org/namespaces/inkscape"
   xmlns:sodipodi="http://sodipodi.sourceforge.net/DTD/sodipodi-0.dtd"
   xmlns="http://www.w3.org/2000/svg"
   xmlns:svg="http://www.w3.org/2000/svg">
  <defs
     id="defs1" />
  <sodipodi:namedview
     id="namedview1"
     pagecolor="#ffffff"
     bordercolor="#000000"
     borderopacity="0.25"
     inkscape:showpageshadow="2"
     inkscape:pageopacity="0.0"
     inkscape:pagecheckerboard="0"
     inkscape:deskcolor="#d1d1d1"
     inkscape:zoom="0.60725309"
     inkscape:cx="523.66963"
     inkscape:cy="256.07116"
     inkscape:window-width="2400"
     inkscape:window-height="1271"
     inkscape:window-x="2391"
     inkscape:window-y="-9"
     inkscape:window-maximized="1"
     inkscape:current-layer="g1" />
  <g
     inkscape:groupmode="layer"
     inkscape:label="Image"
     id="g1"
     transform="translate(-116.87937,-38.859707)">
    <path
       style="fill:#000000"
       d="m 324.56644,592.71493 c -20.92317,-4.3432 -38.83707,-18.33947 -48.13202,-37.60591 -5.45733,-11.31187 -6.31288,-15.49097 -6.34318,-30.98444 l -0.0262,-13.38445 3.01308,-3.01555 3.01309,-3.01556 61.44719,-0.21443 61.44718,-0.21444 2.73973,1.83038 c 5.01367,3.34958 5.70106,5.82388 5.27805,18.99849 -0.3027,9.42728 -0.76361,12.91687 -2.46078,18.63066 -6.95486,23.41474 -23.60403,40.24036 -47.27754,47.77861 -7.22126,2.29943 -24.36376,2.92678 -32.69862,1.19664 z m 24.29862,-23.66552 c 11.45511,-2.61078 23.75948,-12.30851 29.1029,-22.93754 2.52592,-5.02451 5.24834,-13.67958 5.28527,-16.80285 0.009,-0.78824 -9.4752,-1 -44.78817,-1 h -44.8 v 1.83192 c 0,7.01308 5.26542,18.38363 11.7747,25.42715 9.01125,9.75085 19.26079,14.29938 32.2253,14.30092 4.18,4.9e-4 9.22,-0.36832 11.2,-0.8196 z m -94,-85.76561 c -7.95207,-4.47029 -7.90581,-15.78142 0.0833,-20.36162 l 3.11672,-1.78684 80.48169,-0.0132 80.48169,-0.0132 2.64475,1.8 c 4.2901,2.91982 5.99187,5.81674 5.99187,10.2 0,4.38326 -1.70177,7.28018 -5.99187,10.2 l -2.64475,1.8 -80.48169,-0.0132 -80.48169,-0.0132 z m 2.01594,-45.97602 c -5.29299,-2.65929 -6.0051,-4.74318 -7.07151,-20.69388 -1.883,-28.16454 -7.99265,-45.30566 -25.32947,-71.06388 -13.39057,-19.89508 -20.19031,-35.27494 -24.42312,-55.241 -2.44932,-11.55338 -3.0737,-35.11905 -1.25702,-47.44301 3.51565,-23.84936 12.54947,-45.69327 27.0308,-65.36084 5.57416,-7.57045 20.34861,-22.22272 28.46931,-28.23387 18.30764,-13.5518 41.03842,-22.92334 63.64044,-26.23794 6.77,-0.99283 12.55456,-1.21375 24.1155,-0.92101 23.82825,0.60338 38.25569,4.11433 58.40913,14.21401 15.19869,7.61667 24.32532,14.27416 37.23846,27.16386 8.07489,8.06024 12.39852,13.1646 16.95685,20.0188 15.27044,22.9616 23.44089,47.92002 24.35578,74.4 1.11799,32.35833 -7.46255,59.79854 -27.80363,88.9149 -9.234,13.2176 -13.9039,21.9289 -17.85283,33.30289 -3.98942,11.49065 -6.10249,23.51014 -6.77265,38.52395 -0.63638,14.25708 -1.22528,15.92717 -6.57885,18.65702 -2.5566,1.30364 -8.10146,1.39875 -81.54313,1.39875 -73.42608,0 -78.98987,-0.0954 -81.58406,-1.39875 z m 27.86242,-82.79876 c -17.1882,-68.17071 -16.83137,-65.90652 -11.21259,-71.14766 2.93186,-2.73481 3.70999,-3.05234 7.48005,-3.05234 3.86229,0 5.15854,0.56911 15.78714,6.93128 9.20584,5.51053 11.72148,6.6994 12.27274,5.8 0.38137,-0.6222 5.0811,-9.58718 10.44385,-19.92217 10.9106,-21.02672 12.07963,-22.40911 18.95045,-22.40911 6.87087,0 8.01043,1.3644 19.2,22.98838 5.5,10.62882 10.24311,19.5577 10.54024,19.84195 0.29713,0.28426 5.70757,-2.57628 12.02319,-6.35675 9.85537,-5.89933 11.98993,-6.87316 15.05976,-6.87059 6.2149,0.005 10.91098,4.08003 11.72878,10.17719 0.30371,2.26433 -3.40314,18.16023 -14.51187,62.23048 -8.20588,32.55414 -15.10611,59.81934 -15.33385,60.58934 -0.38224,1.29238 0.57288,1.4 12.42459,1.4 14.79471,0 13.23225,1.09747 14.01127,-9.84147 1.45351,-20.41 10.66724,-46.55584 22.46835,-63.75853 13.14029,-19.15482 15.25522,-22.49883 18.02395,-28.49844 7.12033,-15.42916 10.23011,-28.28667 10.9085,-45.10156 0.89894,-22.28156 -3.92628,-42.65726 -14.61727,-61.72512 -22.46864,-40.0738 -64.59239,-62.96732 -110.03718,-59.80328 -11.66295,0.81202 -18.8937,2.20561 -29.02056,5.59318 -41.54468,13.89722 -72.23771,50.17067 -78.51815,92.79382 -1.90127,12.90319 -1.23215,32.27422 1.51783,43.9414 4.02238,17.06552 8.76201,27.1879 21.77501,46.50463 15.9164,23.62661 25.2164,48.64629 27.24443,73.29537 l 0.54302,6.6 h 13.01341 13.01342 z m 79.44881,12.6 c 6.50408,-25.96 11.83622,-47.67642 11.84921,-48.25871 0.0157,-0.70286 -1.38808,-0.25444 -4.17638,1.33414 -7.13988,4.06777 -11.99861,4.02983 -16.48399,-0.12872 -1.03619,-0.96069 -4.76208,-7.48415 -8.27976,-14.49658 -9.69456,-19.32595 -7.67532,-19.05662 -16.20178,-2.16104 -4.00688,7.93982 -8.15036,15.35693 -9.20775,16.48246 -2.26366,2.40956 -7.05161,3.88885 -10.19675,3.1504 -1.22649,-0.28796 -4.0738,-1.55821 -6.32736,-2.82276 -2.25356,-1.26455 -4.29377,-2.29919 -4.53382,-2.29919 -0.35124,0 22.5926,92.2057 23.84294,95.81897 0.27123,0.7838 3.53017,0.96843 14.12122,0.8 l 13.76862,-0.21897 z M 124.06506,238.14404 c -0.66,-0.24127 -2.04421,-1.20285 -3.07602,-2.13684 -6.00404,-5.4349 -5.32711,-14.9264 1.36118,-19.08557 2.79777,-1.73981 3.73362,-1.82271 23.30269,-2.06398 14.19259,-0.17499 21.43555,0.042 23.83569,0.71396 4.20238,1.17659 7.85791,5.28438 8.59733,9.66098 0.75042,4.44166 -1.9951,9.82263 -6.07332,11.90319 -2.85349,1.45574 -4.71441,1.56852 -24.91568,1.51008 -12.00753,-0.0347 -22.37187,-0.26056 -23.03187,-0.50182 z m 378.45686,-0.83626 c -4.25724,-2.17082 -6.05687,-5.20109 -6.05687,-10.19876 0,-4.62609 1.42154,-7.2983 5.50619,-10.35057 2.07536,-1.55082 3.45946,-1.66451 23.15057,-1.9017 13.37617,-0.16112 22.00037,0.0592 23.86905,0.60989 1.60919,0.47418 4.03919,2.13023 5.4,3.6801 2.20826,2.51507 2.47419,3.36228 2.47419,7.88223 0,3.98366 -0.37007,5.53474 -1.73432,7.26911 -3.23772,4.11609 -5.14001,4.41105 -28.43998,4.4097 -18.81732,-0.001 -21.75965,-0.17153 -24.16883,-1.4 z M 207.66506,149.98853 c -1.32,-0.83298 -8.99379,-8.149 -17.05286,-16.25783 -11.88302,-11.95637 -14.77985,-15.30635 -15.32464,-17.72189 -2.14777,-9.52296 7.3398,-17.440399 16.1237,-13.45534 5.13288,2.32866 32.21644,29.91251 33.30103,33.91615 0.91054,3.36111 0.22944,7.35771 -1.77529,10.41733 -2.88508,4.40318 -10.69565,5.98943 -15.27194,3.10158 z m 245.44346,-0.0443 c -3.16758,-1.9314 -4.97912,-4.61878 -5.57065,-8.26399 -0.88677,-5.46449 0.59387,-7.53167 17.1427,-23.9337 14.21534,-14.08925 16.11713,-15.69992 19.13069,-16.20222 4.09855,-0.68315 9.83452,1.57063 11.85836,4.6594 1.6157,2.46588 2.39976,7.57628 1.63504,10.65699 -0.61667,2.48426 -28.90603,31.56332 -32.59988,33.5099 -3.07938,1.62277 -8.56643,1.42102 -11.59626,-0.42638 z M 329.681,98.907791 c -1.53123,-0.76932 -3.60123,-2.622 -4.6,-4.11707 -1.78075,-2.66562 -1.81594,-3.1556 -1.81594,-25.28169 0,-22.126091 0.0352,-22.616069 1.81594,-25.281693 5.04351,-7.549673 15.46205,-7.051398 20.18406,0.965318 1.45662,2.47296 1.62401,4.436892 1.86795,21.916375 0.30046,21.52862 -0.28289,26.17043 -3.69835,29.42855 -4.10105,3.912129 -9.00318,4.756929 -13.75366,2.37021 z"
       id="path1" />
  </g>
</svg>
