<?xml version="1.0" encoding="UTF-8" standalone="no"?>
<!-- Created with Inkscape (http://www.inkscape.org/) -->

<svg
   version="1.1"
   id="svg1"
   width="570.23761"
   height="495.80734"
   viewBox="0 0 570.23761 495.80734"
   sodipodi:docname="junguitu_dronda_maitane_RPMI_02_TareaEvaluativa_imagen_volumen.svg"
   inkscape:version="1.3 (0e150ed6c4, 2023-07-21)"
   xmlns:inkscape="http://www.inkscape.org/namespaces/inkscape"
   xmlns:sodipodi="http://sodipodi.sourceforge.net/DTD/sodipodi-0.dtd"
   xmlns="http://www.w3.org/2000/svg"
   xmlns:svg="http://www.w3.org/2000/svg">
  <defs
     id="defs1" />
  <sodipodi:namedview
     id="namedview1"
     pagecolor="#ffffff"
     bordercolor="#000000"
     borderopacity="0.25"
     inkscape:showpageshadow="2"
     inkscape:pageopacity="0.0"
     inkscape:pagecheckerboard="0"
     inkscape:deskcolor="#d1d1d1"
     inkscape:zoom="0.59911694"
     inkscape:cx="16.691232"
     inkscape:cy="191.11461"
     inkscape:window-width="2400"
     inkscape:window-height="1271"
     inkscape:window-x="2391"
     inkscape:window-y="-9"
     inkscape:window-maximized="1"
     inkscape:current-layer="g1" />
  <g
     inkscape:groupmode="layer"
     inkscape:label="Image"
     id="g1"
     transform="translate(-108.1109,-116.07829)">
    <path
       style="fill:#000000"
       d="m 336.89342,611.32898 c -1.10285,-0.36132 -3.26285,-1.28808 -4.8,-2.05949 -1.53715,-0.7714 -26.91482,-25.47553 -56.39482,-54.89807 l -53.6,-53.49552 -46.80001,-0.25295 c -34.53591,-0.18667 -47.57092,-0.51286 -49.74185,-1.24477 -8.18669,-2.76005 -14.7891,-10.1821 -16.60981,-18.67181 -0.57411,-2.67696 -0.8443,-38.40222 -0.83584,-110.51628 0.0135,-115.26501 -0.0923,-112.3347 4.29511,-118.9645 1.16395,-1.75885 3.8209,-4.45558 5.90433,-5.99274 7.09786,-5.23681 6.71687,-5.20216 57.33326,-5.21462 l 45.65481,-0.0112 50.53941,-56.18876 c 27.79668,-30.90381 52.10655,-57.82144 54.02192,-59.81695 5.1997,-5.41722 10.03989,-7.45774 17.83867,-7.52039 5.44749,-0.0438 7.07647,0.28078 10.94528,2.18065 5.34883,2.62667 8.90186,6.40832 11.77383,12.53143 l 2.08089,4.4365 0.22043,224.8 c 0.13822,140.95288 -0.0663,226.66831 -0.54841,229.80907 -1.38913,9.05032 -5.9035,15.40908 -13.83597,19.48881 -3.71518,1.91074 -13.69922,2.82758 -17.44123,1.60163 z m -17.791,-325.35442 -0.20382,-80.45491 -30.4,33.8349 c -39.79532,44.29178 -41.14059,45.68842 -46.22042,47.98519 l -4.17958,1.88973 -40.20001,0.23465 -40.2,0.23465 v 80.76535 80.76535 h 39.56999 c 38.43187,0 39.70317,0.0491 44.20001,1.70886 4.32747,1.59719 7.00849,4.07819 41.03001,37.96879 l 36.4,36.25993 0.20382,-80.36879 c 0.11211,-44.20284 0.11211,-116.5735 0,-160.8237 z m 237.1742,325.21377 c -7.97463,-1.59153 -16.19603,-8.52127 -18.68267,-15.74745 -0.56995,-1.65628 -1.04956,-5.53142 -1.06581,-8.61142 -0.0426,-8.0781 2.26124,-12.43402 12.10772,-22.89233 21.75202,-23.10362 36.99386,-45.02069 50.70411,-72.9102 14.95097,-30.41343 23.65038,-60.29366 28.12362,-96.59746 1.36785,-11.10119 1.36785,-49.69881 0,-60.8 -4.47287,-36.30077 -13.15363,-66.11829 -28.13426,-96.63824 -13.62972,-27.76775 -29.44929,-50.41645 -51.27125,-73.40445 -8.97387,-9.45339 -9.64417,-10.38779 -11.25414,-15.68825 -2.72166,-8.96046 -1.13275,-16.70381 4.93905,-24.06997 5.81954,-7.06011 17.95268,-9.76738 27.54987,-6.14721 4.05156,1.52829 6.08355,3.12054 13.11689,10.27828 45.97358,46.78676 77.98186,108.4094 90.1507,173.55896 16.00177,85.67032 -1.4581,174.02701 -48.874,247.32967 -10.16278,15.71117 -23.33618,32.33361 -38.47127,48.54377 -6.6973,7.17302 -9.36136,9.43704 -13.34237,11.33885 -5.60973,2.67989 -10.56743,3.46106 -15.59619,2.45745 z m -69.45234,-63.18335 c -8.15789,-1.6174 -14.77324,-6.80594 -18.20385,-14.27759 -1.28584,-2.80049 -1.695,-5.25112 -1.68597,-10.09792 0.0163,-8.7562 1.63883,-11.73776 12.32948,-22.65679 14.33457,-14.6408 25.93955,-31.13583 35.30292,-50.17872 14.03639,-28.54671 20.61075,-59.13069 19.68278,-91.56449 -1.40475,-49.09771 -19.23028,-92.3226 -53.26266,-129.15586 -9.1476,-9.90045 -11.28837,-14.08099 -11.28837,-22.04414 0,-6.64199 2.38226,-12.48752 6.95106,-17.05632 5.62488,-5.62488 9.72139,-7.34616 17.44894,-7.33171 8.81792,0.0165 12.53814,1.84593 20.75478,10.20638 32.59357,33.16399 56.23944,79.20794 64.80057,126.18165 3.75161,20.58455 4.76717,50.21402 2.43626,71.07891 -5.97144,53.45265 -28.32151,101.55117 -66.08052,142.20877 -9.79809,10.55025 -11.44963,11.87036 -17.32806,13.85066 -5.24113,1.76561 -6.66682,1.86626 -11.85736,0.83717 z M 417.2986,474.91041 c -5.09102,-1.61008 -7.91193,-3.34679 -11.01486,-6.78136 -7.03583,-7.78782 -8.51471,-17.26318 -4.27291,-27.377 0.66374,-1.58257 4.37756,-6.50637 8.25292,-10.94178 15.11793,-17.30264 23.06589,-35.74002 25.02356,-58.04872 1.68821,-19.23813 -3.05969,-40.15414 -12.91198,-56.88133 -3.97465,-6.74814 -6.4814,-10.08753 -13.55002,-18.05075 -6.1405,-6.91765 -7.40044,-9.13196 -8.65166,-15.20509 -2.70053,-13.10775 6.3738,-26.43989 19.57424,-28.75879 5.97015,-1.04876 12.01361,-0.0545 16.83162,2.769 4.31725,2.53007 14.84926,13.86155 21.55843,23.19488 6.6839,9.29818 16.07495,27.98668 19.77276,39.34844 16.13766,49.58405 5.31711,102.76799 -29.15119,143.28065 -6.24654,7.34193 -9.86418,10.25675 -15.71818,12.6645 -5.07818,2.08866 -10.73364,2.37151 -15.74273,0.78735 z"
       id="path1" />
  </g>
</svg>
