<?xml version="1.0" encoding="UTF-8" standalone="no"?>
<!-- Created with Inkscape (http://www.inkscape.org/) -->

<svg
   version="1.1"
   id="svg1"
   width="581.20142"
   height="371.76013"
   viewBox="0 0 581.20142 371.76013"
   sodipodi:docname="junguitu_dronda_maitane_RPMI_02_TareaEvaluativa_imagen_mando.svg"
   inkscape:version="1.3 (0e150ed6c4, 2023-07-21)"
   xmlns:inkscape="http://www.inkscape.org/namespaces/inkscape"
   xmlns:sodipodi="http://sodipodi.sourceforge.net/DTD/sodipodi-0.dtd"
   xmlns="http://www.w3.org/2000/svg"
   xmlns:svg="http://www.w3.org/2000/svg">
  <defs
     id="defs1" />
  <sodipodi:namedview
     id="namedview1"
     pagecolor="#ffffff"
     bordercolor="#000000"
     borderopacity="0.25"
     inkscape:showpageshadow="2"
     inkscape:pageopacity="0.0"
     inkscape:pagecheckerboard="0"
     inkscape:deskcolor="#d1d1d1"
     showgrid="false"
     inkscape:zoom="0.51815643"
     inkscape:cx="897.4124"
     inkscape:cy="157.28841"
     inkscape:window-width="2400"
     inkscape:window-height="1271"
     inkscape:window-x="2391"
     inkscape:window-y="-9"
     inkscape:window-maximized="1"
     inkscape:current-layer="g1" />
  <g
     inkscape:groupmode="layer"
     inkscape:label="Image"
     id="g1"
     transform="translate(-62.732459,-56.285263)">
    <path
       style="fill:#000000"
       d="m 111.61898,426.6466 c -11.02722,-2.97698 -18.13179,-6.72919 -27.2971,-14.4167 -9.64126,-8.08672 -16.55927,-19.52719 -18.89079,-31.24013 -3.17954,-15.97321 -3.63815,-72.10486 -0.90199,-110.4 1.67662,-23.46585 7.46442,-86.39921 8.53455,-92.80001 1.10193,-6.59101 5.43882,-21.00855 8.65645,-28.77748 3.90383,-9.42576 9.00711,-16.86816 16.3006,-23.77205 5.8652,-5.5519 21.70011,-18.09556 23.72625,-18.7948 0.40747,-0.14062 1.82103,-4.53771 3.14127,-9.771316 4.39908,-17.438662 7.87662,-24.323438 15.04916,-29.794115 7.68203,-5.859283 25.69002,-10.141331 43.00276,-10.225454 16.09921,-0.07823 24.27727,2.331189 32.19628,9.485655 5.80863,5.247826 13.39434,16.830628 15.37899,23.482534 1.64282,5.506226 4.02473,18.160316 4.02473,21.381756 v 1.80514 h 118.8 118.8 v -2.28157 c 0,-3.18897 2.90079,-17.814712 4.49966,-22.687193 1.71417,-5.223859 9.64416,-16.844226 14.7612,-21.63062 9.1672,-8.574846 25.10241,-11.762626 44.49234,-8.900528 25.89179,3.82182 35.47552,9.358213 41.00073,23.685567 2.40459,6.235294 6.42453,20.770554 6.43877,23.281204 0.004,0.70771 2.0773,2.65565 4.6073,4.32877 13.76414,9.10237 26.70967,21.38677 32.01973,30.3845 6.33762,10.7389 12.80141,31.02636 14.52862,45.6 1.39453,11.76668 6.32737,68.20429 7.65653,87.60001 2.721,39.70613 2.27549,92.85273 -0.91203,108.8 -2.36004,11.80733 -8.27422,21.62281 -18.49549,30.69604 -13.61095,12.08219 -26.94876,16.95754 -44.59736,16.3016 -11.072,-0.41151 -15.77378,-1.8523 -23.96124,-7.3426 -16.96882,-11.37884 -25.26234,-22.70682 -42.79646,-58.45504 -5.17957,-10.56 -10.21867,-19.91356 -11.19802,-20.78568 -0.97934,-0.87213 -3.0406,-3.30213 -4.58058,-5.4 -1.53999,-2.09788 -3.03931,-3.80825 -3.33184,-3.80082 -0.29252,0.007 -3.16785,2.12435 -6.38961,4.70429 -7.97297,6.38462 -12.37089,8.62649 -21.43159,10.92493 -20.04647,5.0852 -43.08331,0.46676 -60.97683,-12.22469 -6.02963,-4.27667 -10.47578,-10.07901 -16.07306,-20.97577 l -4.13103,-8.04226 h -29.89559 -29.8956 l -4.5404,8.6 c -5.81659,11.01723 -9.89751,16.28185 -15.94522,20.5702 -17.67411,12.53247 -40.82116,17.13133 -60.7636,12.07252 -9.06069,-2.29844 -13.45861,-4.54031 -21.43158,-10.92493 -3.22177,-2.57994 -6.08502,-4.69687 -6.3628,-4.70429 -0.27778,-0.007 -1.50247,1.3365 -2.72153,2.9865 -1.21906,1.65 -3.38834,4.26 -4.82062,5.8 -1.43723,1.54531 -7.2807,12.13517 -13.04053,23.63276 -16.04839,32.03527 -26.14391,45.79401 -40.86125,55.68799 -8.96912,6.02963 -13.1486,7.28873 -25.25102,7.60706 -8.39423,0.22079 -11.5034,-0.0243 -16.12116,-1.27098 z m 155.01876,-98.00752 c 14.81655,-3.14057 27.13455,-14.58387 31.42609,-29.19452 0.7345,-2.5006 1.27631,-7.27841 1.27631,-11.25479 0,-19.72765 -12.30139,-35.46391 -31.56808,-40.38271 -16.96484,-4.33114 -35.08988,3.18803 -45.1301,18.7222 -8.29186,12.82912 -8.10452,30.97195 0.45439,44.00619 9.79491,14.91651 26.26685,21.76521 43.54139,18.10363 z m 192.98327,-1.1818 c 6.2029,-2.16926 9.574,-4.30421 15.18117,-9.61434 8.37934,-7.93547 12.53796,-17.7911 12.53796,-29.71411 0,-12.29696 -4.52916,-22.37063 -13.9008,-30.91793 -23.3248,-21.27312 -61.5347,-8.60324 -68.09352,22.57887 -1.47091,6.99304 -1.47553,9.7954 -0.0274,16.62948 3.29621,15.55571 15.41906,28.32435 30.52898,32.15527 6.26729,1.58898 17.55168,1.05868 23.77361,-1.11724 z m 88.6123,-77.72434 c 4.75723,-2.41168 7.7024,-5.36586 9.96985,-10.00036 1.8963,-3.8759 2.10094,-5.06666 1.76645,-10.27871 -0.77156,-12.02253 -8.89276,-19.92489 -20.57535,-20.02092 -16.17639,-0.13297 -26.55218,16.45143 -19.24893,30.76698 5.2208,10.23363 18.0901,14.60144 28.08798,9.53301 z M 184.14014,221.8313 v -12.75847 l -3.8975,-4.68331 c -4.67301,-5.6152 -11.09444,-11.39976 -12.65486,-11.39976 -2.47051,0 -5.95383,2.65567 -11.76058,8.96624 l -6.08706,6.61518 v 13.00929 13.00929 h 17.2 17.2 z m 312.60275,-17.54091 c 4.07813,-2.0805 9.32912,-7.88172 10.65179,-11.76794 3.23365,-9.50102 -0.81286,-20.62783 -9.31349,-25.60953 -4.23011,-2.479 -11.77014,-3.3809 -16.82572,-2.0126 -8.30588,2.248 -14.98369,10.98516 -15.02784,19.66223 -0.0324,6.37271 1.42388,10.33287 5.37685,14.62133 3.18041,3.45033 6.09593,5.3809 10.13048,6.70807 3.13541,1.0314 11.62213,0.12575 15.00793,-1.60156 z m 104.25912,-0.61151 c 15.19731,-8.27142 14.4846,-30.27847 -1.21739,-37.59016 -9.64115,-4.48944 -20.67884,-1.28967 -26.83367,7.77894 -2.42476,3.57267 -2.82726,4.86361 -3.08059,9.88022 -0.23471,4.64796 0.0572,6.58103 1.50067,9.93638 4.88335,11.35165 18.62282,15.98601 29.63098,9.99462 z m -452.92894,-9.07857 c 7.21021,-6.35354 9.66664,-9.43652 9.66806,-12.13404 6.9e-4,-1.3167 -2.26048,-4.08412 -7.57953,-9.27651 l -7.58051,-7.4 h -13.22047 -13.22048 v 16.66667 c 0,9.16667 0.24,16.90667 0.53333,17.2 0.29333,0.29333 6.05105,0.53333 12.79492,0.53333 h 12.26159 z m 69.66707,-11.61055 v -17.2 H 204.7125 191.68485 l -5.20759,4.6 c -6.72238,5.93805 -10.33712,10.32399 -10.33712,12.54252 0,2.21782 4.20335,7.17242 10.91657,12.86766 l 5.17448,4.38982 h 12.75447 12.75448 z m 92.6239,2.6 0.2239,-10.2 h -16.8239 -16.8239 v 9.86667 c 0,5.42667 0.24724,10.11391 0.54942,10.41609 0.30218,0.30218 7.77218,0.45218 16.6,0.33333 l 16.05058,-0.21609 z m 99.28597,5.77448 c 8.18957,-2.65404 15.43013,-5.03534 16.09013,-5.29178 0.92423,-0.35911 -15.23952,-6.24571 -30.6,-11.14407 -1.28648,-0.41025 -1.4,0.43366 -1.4,10.40746 0,5.96965 0.22944,10.85391 0.50987,10.85391 0.28042,0 7.21042,-2.17148 15.4,-4.82552 z m -232.95939,-26.78305 7.44952,-7.60858 v -13.19142 -13.19143 h -17.2 -17.2 v 13.16203 13.16202 l 7.4,7.64412 c 9.76124,10.08325 9.70087,10.08318 19.55048,0.0233 z m 370.8716,-5.121 c 3.87057,-1.47643 9.95383,-7.85416 11.32229,-11.87037 1.745,-5.1213 1.57682,-11.81194 -0.4072,-16.20006 -7.29509,-16.13469 -29.09174,-17.12976 -38.13796,-1.7411 -1.90884,3.24715 -2.19738,4.58612 -2.18536,10.1411 0.0163,7.53184 1.57952,11.20095 6.77004,15.89028 6.25611,5.65202 14.23717,6.98471 22.63819,3.78015 z"
       id="path1" />
  </g>
</svg>
