<?xml version="1.0" encoding="UTF-8" standalone="no"?>
<!-- Created with Inkscape (http://www.inkscape.org/) -->

<svg
   version="1.1"
   id="svg1"
   width="1447.2979"
   height="737.51672"
   viewBox="0 0 1447.2979 737.51672"
   sodipodi:docname="junguitu_dronda_maitane_RPMI_02_TareaEvaluativa_imagen_titulo.svg"
   inkscape:version="1.3 (0e150ed6c4, 2023-07-21)"
   xmlns:inkscape="http://www.inkscape.org/namespaces/inkscape"
   xmlns:sodipodi="http://sodipodi.sourceforge.net/DTD/sodipodi-0.dtd"
   xmlns="http://www.w3.org/2000/svg"
   xmlns:svg="http://www.w3.org/2000/svg">
  <defs
     id="defs1" />
  <sodipodi:namedview
     id="namedview1"
     pagecolor="#ffffff"
     bordercolor="#000000"
     borderopacity="0.25"
     inkscape:showpageshadow="2"
     inkscape:pageopacity="0.0"
     inkscape:pagecheckerboard="0"
     inkscape:deskcolor="#d1d1d1"
     inkscape:zoom="0.26145833"
     inkscape:cx="2596.9721"
     inkscape:cy="1558.5657"
     inkscape:window-width="2400"
     inkscape:window-height="1271"
     inkscape:window-x="2391"
     inkscape:window-y="-9"
     inkscape:window-maximized="1"
     inkscape:current-layer="g1" />
  <g
     inkscape:groupmode="layer"
     inkscape:label="Image"
     id="g1"
     transform="translate(-241.78747,-200.80643)">
    <g
       id="g16"
       transform="translate(-81.134164,1022.2905)">
      <path
         style="fill:#d476fd"
         d="m 729.55337,-426.9769 c -7.65432,-1.35043 -15.40687,-5.4903 -20.96236,-11.19391 -9.22952,-9.47559 -11.72733,-18.55026 -11.78723,-42.82359 l -0.0309,-12.51032 22.50576,-11.23968 c 12.37817,-6.18182 22.72817,-11.23967 23,-11.23967 0.27183,0 0.49424,10.35 0.49424,23 v 23 h 19 19 v -47.5 c 0,-26.125 -0.24043,-47.5 -0.53429,-47.5 -0.29386,0 -19.03863,9.45 -41.65503,21 -22.61641,11.55 -41.27598,21 -41.46571,21 -0.77882,0 -0.21129,-158.02921 0.58983,-164.24218 2.07922,-16.12488 12.42839,-28.68922 27.5652,-33.46534 5.65418,-1.78406 67.34582,-1.78406 73,0 18.41517,5.81054 28.52231,21.47016 28.4899,44.14118 l -0.0101,7.06634 -22.4596,11.25 c -12.35279,6.1875 -22.69824,11.25 -22.9899,11.25 -0.29166,0 -0.53029,-6.975 -0.53029,-15.5 v -15.5 h -19 -19 v 39.33333 c 0,21.63334 0.2507,39.58404 0.55711,39.89045 0.30641,0.30641 2.44391,-0.44387 4.75,-1.66729 12.39522,-6.57587 77.49192,-39.55649 78.07605,-39.55649 0.37767,0 0.55846,41.0625 0.40175,91.25 l -0.28491,91.25 -2.2701,5.61169 c -2.99162,7.39529 -8.20302,13.94248 -14.56384,18.29689 -9.97055,6.82551 -10.82318,6.96312 -44.66606,7.20934 -16.775,0.12205 -32.62379,-0.15279 -35.21953,-0.61075 z m 132.2314,-129.75717 c 0.0127,-139.74809 -0.14081,-135.22615 4.9267,-145.1387 3.17802,-6.21653 10.57844,-13.2369 17.57419,-16.67168 l 5.98724,-2.93962 h 36.02103 36.02102 l 6.67634,3.28675 c 7.99852,3.93766 13.79378,10.06523 18.17125,19.21325 l 3.11036,6.5 0.26431,133.25 0.2643,133.25 h -23.0143 -23.01431 v -63.10699 c 0,-50.07721 -0.25809,-63.007 -1.25,-62.6227 -0.6875,0.26636 -8.9,4.56274 -18.25,9.54751 l -17,9.06322 -0.25869,53.55948 -0.25868,53.55948 H 884.76421 861.7729 Z m 65.03825,-37.5 17.90709,-9.25 0.0214,-37.25 0.0214,-37.25 h -18.5 -18.5 v 46.5 c 0,25.575 0.25718,46.5 0.57152,46.5 0.31433,0 8.6297,-4.1625 18.4786,-9.25 z m 129.44988,167.29984 c -15.0788,-3.74676 -27.436,-18.29514 -29.5652,-34.80766 -1.2305,-9.54283 -1.1424,-216.99562 0.096,-225.74218 1.9235,-13.58666 10.5187,-25.58545 22.6372,-31.60125 4.7711,-2.3684 5.2622,-2.40269 38.8256,-2.71057 25.1418,-0.23063 35.1668,0.0167 38.4999,0.94993 14.0323,3.92882 25.1601,16.42125 27.9184,31.34215 0.5986,3.23788 1.0764,13.56691 1.0619,22.9534 l -0.026,17.06634 -22.0495,11.5 c -12.1272,6.325 -22.4653,11.65 -22.9735,11.83333 -0.5504,0.19852 -0.9241,-10.21608 -0.9241,-25.75 v -26.08333 h -19 -19 v 104 104 h 19 19 v -37.5 c 0,-20.625 -0.234,-37.5 -0.52,-37.5 -0.286,0 -4.5686,2.03334 -9.5169,4.51853 l -8.9969,4.51854 0.2669,-25.68255 0.2669,-25.68254 31.5,-16.31967 c 17.325,-8.97582 31.8375,-16.32702 32.25,-16.33599 0.4125,-0.009 0.75,43.63368 0.75,96.98368 v 97 l -48.25,-0.10236 c -26.5375,-0.0563 -49.6,-0.43781 -51.25,-0.8478 z m 166.2858,-0.0432 c -11.5019,-2.02649 -21.7739,-10.15703 -27.5199,-21.7827 l -3.7659,-7.61931 -0.2678,-132.8023 -0.2679,-132.80231 h 23.0179 23.0178 v 126 126 h 18.5 18.5 v -126 -126 h 23.0143 23.0143 l -0.2643,133.2714 -0.2643,133.27139 -3.2021,6.50407 c -3.903,7.92767 -11.5208,15.72536 -19.1286,19.58041 l -5.6693,2.87273 -32,0.16861 c -17.6,0.0927 -34.1214,-0.20516 -36.7142,-0.66199 z"
         id="path86" />
      <path
         style="fill:#cd72f5"
         d="m 1090.2086,-561.48407 c 6e-4,-14.3 0.141,-20.01094 0.3121,-12.69097 0.1711,7.31996 0.1706,19.01996 -10e-4,26 -0.1717,6.98003 -0.3117,0.99097 -0.3111,-13.30903 z"
         id="path85" />
      <path
         style="fill:#52f0eb"
         d="m 356.15724,-113.37205 c -4.30702,-1.93879 -5.65811,-6.12077 -4.01896,-12.43983 0.83236,-3.20885 14.69054,-26.91217 41.07609,-70.25742 44.14443,-72.51893 57.97893,-94.0049 65.96825,-102.45349 l 5.38112,-5.69044 7.35458,0.38616 c 5.05935,0.26565 8.85315,1.11728 12.15642,2.72888 7.82882,3.81953 7.77856,3.60037 6.21768,27.11412 -3.05161,45.97075 -2.89535,60.06985 0.70538,63.6441 3.34876,3.32412 13.62681,-6.73334 26.20655,-25.6441 3.47576,-5.225 13.29297,-20.075 21.81604,-33 8.52307,-12.925 16.88105,-24.79961 18.57329,-26.38803 2.92834,-2.74868 3.41517,-2.86382 10.0893,-2.38629 4.86613,0.34817 8.75469,1.35411 12.70449,3.28657 l 5.69199,2.78483 -0.65382,19.60146 c -1.73099,51.89457 -1.90207,68.64483 -0.74411,72.85413 2.85457,10.37663 12.36815,9.28515 28.90845,-3.3166 12.73122,-9.69968 19.59365,-11.79123 22.77199,-6.94048 5.0296,7.67614 -8.00966,28.35426 -26.87753,42.62334 -24.33979,18.40731 -47.35641,20.72801 -56.0708,5.65346 -5.10857,-8.83702 -5.8988,-13.59964 -6.39178,-38.52239 -0.25294,-12.7875 -0.74993,-23.24051 -1.10443,-23.2289 -0.35449,0.0116 -3.64897,4.1741 -7.32106,9.25 -13.51742,18.68498 -42.85021,52.34941 -52.90341,60.71576 -7.06213,5.87717 -11.20775,6.78032 -23.17512,5.04883 -11.33502,-1.64 -16.41817,-4.00937 -18.30873,-8.53411 -1.92218,-4.60044 -3.36233,-27.43474 -2.68694,-42.60286 0.31201,-7.00719 0.1144,-12.31991 -0.49901,-13.41601 -0.89951,-1.60734 -1.33241,-1.31006 -3.78793,2.60128 -33.13741,52.78364 -54.08757,84.3874 -59.58424,89.88407 -6.33579,6.33579 -15.72845,9.23917 -21.49375,6.64396 z m 546.93664,-32.16149 c -4.05405,-2.08067 -6.69145,-7.42978 -5.7921,-11.7474 2.8105,-13.49279 25.95202,-31.94558 59.31998,-47.30109 10.89857,-5.01539 11.51713,-5.46642 14.38619,-10.48995 3.80696,-6.66575 13.00715,-27.00322 12.46215,-27.54822 -0.22621,-0.22621 -6.66312,3.91805 -14.30425,9.20948 -29.79476,20.63266 -67.55816,35.95394 -100.77489,40.88615 -16.65695,2.47332 -26.62533,-0.31937 -35.4978,-9.94486 -8.91181,-9.66817 -12.51386,-24.7921 -8.66475,-36.38069 2.21861,-6.67961 9.67914,-17.92917 17.52312,-26.4227 29.58638,-32.03642 99.61177,-72.07929 149.02137,-85.21543 13.301,-3.53624 22.4986,-4.15451 26.9801,-1.81362 5.1745,2.70292 8.0199,7.5754 8.0199,13.73355 0,6.42032 -2.9273,11.04569 -9.769,15.43605 -10.3304,6.62899 -23.23797,9.61936 -48.55771,11.24965 l -17.17329,1.10576 -10.7346,6.05812 c -25.12914,14.18176 -51.61341,38.01043 -60.16657,54.13361 -3.31434,6.24772 -3.27729,9.07644 0.16395,12.51768 3.53766,3.53766 9.84935,4.44337 21.24501,3.04861 27.92165,-3.41746 55.83614,-14.7994 80.04449,-32.63759 25.01082,-18.42949 33.36202,-20.1991 44.19592,-9.36511 4.357,4.35699 4.7518,5.15293 4.7518,9.58072 0,10.04879 -7.6026,31.84217 -17.0786,48.95675 -6.8002,12.28177 -22.30031,32.8615 -30.04455,39.89052 -13.31462,12.08493 -33.01367,23.04919 -54.0141,30.0636 -13.03816,4.35491 -21.06097,5.2961 -25.54177,2.99641 z m -230.91005,-23.86772 c -14.0626,-3.21375 -25.83074,-12.52265 -28.90104,-22.86147 -7.09903,-23.90502 10.2974,-56.00204 45.94087,-84.76249 27.65506,-22.31467 69.67691,-44.1863 94.90795,-49.39791 8.42571,-1.74038 10.7436,-1.27826 14.64129,2.91903 2.17479,2.34196 2.48752,3.55905 2.40409,9.3561 -0.0672,4.67189 -0.7624,8.06183 -2.32551,11.34029 -2.85734,5.99298 -11.59276,14.25508 -18.32594,17.33297 -6.92773,3.16683 -18.30342,4.85242 -28.49593,4.22238 -8.00558,-0.49486 -8.40593,-0.41162 -13.88304,2.88653 -25.72883,15.49309 -45.65452,39.43558 -45.81914,55.05577 -0.0685,6.49616 2.23651,9.91001 8.99744,13.32599 4.57836,2.31322 5.91927,2.48969 17.94803,2.36201 10.78474,-0.11447 14.53364,-0.58368 22,-2.75349 12.67422,-3.68328 32.5157,-13.76438 49.5,-25.15007 22.96204,-15.39295 30.32329,-17.92059 33.04612,-11.34711 1.12376,2.71301 1.04327,3.57148 -0.62868,6.70527 -4.68653,8.78412 -25.74779,26.9529 -48.57714,41.90573 -21.92186,14.35843 -42.08162,23.39522 -61.91542,27.75414 -10.34329,2.27316 -32.73282,2.88456 -40.51395,1.10633 z m 412.92927,-48.54042 c -5.438,-1.29574 -9.606,-4.40449 -12.0164,-8.96264 -5.3945,-10.20107 -1.1861,-25.73808 12.3946,-45.7604 6.5145,-9.60435 6.4762,-11.31935 -0.2528,-11.31935 -2.5284,0 -5.4057,0.43276 -6.394,0.96169 -0.9883,0.52893 -5.7054,5.47532 -10.4824,10.99198 -10.6857,12.34026 -18.1793,19.78299 -21.8071,21.65901 -6.7207,3.47543 -14.1457,-4.68759 -14.201,-15.61268 -0.05,-9.88252 8.9019,-25.41403 22.4659,-38.97807 17.576,-17.57599 33.6434,-22.69481 40.81,-13.00144 2.6715,3.61334 4.3811,3.70826 17.643,0.97951 13.7619,-2.83162 16.6639,-2.67304 21.0163,1.14844 9.8142,8.617 8.516,15.95129 -6.0046,33.9231 -6.2256,7.70529 -11.5117,15.76548 -11.5117,17.55281 0,2.4056 3.1656,4.37565 7.0311,4.37565 3.2409,0 5.3448,-1.0986 12.6374,-6.59882 13.7271,-10.35321 21.2242,-17.34594 25.5945,-23.8726 5.4439,-8.13016 19.359,-21.62984 30.2838,-29.37993 17.3026,-12.27438 43.1334,-23.14865 54.9874,-23.14865 5.2679,0 12.1591,2.37734 15.3162,5.2838 14.2388,13.10822 -2.8799,39.6119 -41.1338,63.68428 -5.0691,3.18992 -9.1316,6.183 -9.0276,6.65129 0.3468,1.56215 6.7427,2.59694 12.7525,2.06322 14.6899,-1.3046 46.6441,-23.01713 57.1653,-38.84322 14.2912,-21.49699 46.9291,-44.23212 73.8932,-51.47295 7.5488,-2.02714 17.814,-1.75705 22.414,0.58973 17.8462,9.10441 11.1805,29.22306 -17.5549,52.98503 -5.0275,4.15735 -13.501,10.24754 -18.83,13.53375 -5.329,3.28621 -9.8842,6.29055 -10.1226,6.67631 -0.2384,0.38575 2.0476,1.21644 5.08,1.84596 10.5628,2.19282 22.7054,-2.38603 40.6607,-15.33264 12.1366,-8.75104 13.102,-9.63587 16.0582,-14.71811 3.1082,-5.3436 14.5318,-16.45288 24.9385,-24.25226 16.9064,-12.6707 42.242,-26.02752 49.3697,-26.02752 5.22,0 14.8845,4.48504 17.1652,7.96594 2.5998,3.96775 0.5571,6.46857 -10.8491,13.28214 -19.9906,11.94156 -33.8297,25.12278 -33.8297,32.22151 0,3.49465 3.0037,5.27322 7.4856,4.43241 5.8759,-1.10232 27.3418,-16.53313 37.1958,-26.73825 3.99,-4.1321 4.2785,-4.85708 6.2997,-15.83042 7.2469,-39.34449 22.0689,-76.05664 35.4504,-87.80576 7.6435,-6.71106 16.1844,-8.75835 24.0332,-5.76087 6.5986,2.52002 9.5388,6.50186 9.5205,12.89336 -0.036,12.49894 -4.8041,24.33089 -21.0559,52.24614 -13.5889,23.34139 -14.2929,25.25702 -14.3684,39.09774 -0.054,9.84566 0.1884,11.50522 2.0409,13.99176 5.3748,7.21446 12.5918,5.04391 25.4773,-7.66237 7.5984,-7.49269 9.2535,-9.80358 13.966,-19.5 4.5257,-9.31193 6.5054,-12.15096 12.9005,-18.5 8.4122,-8.35161 14.7365,-12.19137 23.9803,-14.55953 12.0008,-3.07446 19.0741,0.58692 19.0741,9.87339 0,3.70769 -3.7408,11.56373 -11.2787,23.68614 -7.562,12.1612 -9.2983,23.06974 -3.993,25.08679 8.711,3.31193 22.3561,-8.16406 46.4745,-39.08679 11.2859,-14.46979 18.6739,-22.01337 21.5249,-21.97804 2.7048,0.0335 9.5442,3.43907 11.6406,5.79623 4.9801,5.59962 2.473,24.70696 -7.2077,54.93181 -2.158,6.7375 -3.5796,12.25 -3.1592,12.25 0.4204,0 3.3496,-3.0375 6.5092,-6.75 3.1597,-3.7125 14.4471,-16.25399 25.0833,-27.86998 20.2263,-22.0897 24.4008,-25.47133 29.3117,-23.74426 5.5207,1.94153 6.0881,8.15418 1.6421,17.98088 -5.0148,11.08407 -9.4428,16.30054 -58.471,68.88336 l -25.1748,27 -6.6784,13.40053 c -9.9448,19.95464 -13.2984,22.28709 -22.7885,15.84947 -12.8034,-8.68515 -12.2648,-13.7096 6.5071,-60.71031 4.9338,-12.35317 8.7608,-22.67015 8.5043,-22.92662 -0.2565,-0.25647 -3.6197,2.95595 -7.4739,7.13871 -16.0721,17.44244 -36.0089,27.46945 -50.3436,25.31983 -9.146,-1.37153 -17.813,-9.50173 -21.2073,-19.89381 -0.9302,-2.84779 -1.855,-5.3647 -2.0551,-5.59314 -0.2001,-0.22844 -3.4019,2.49941 -7.1152,6.06188 -14.463,13.87585 -26.997,21.02422 -37.0242,21.11561 -9.8601,0.0899 -16.1525,-5.01041 -21.5773,-17.48926 l -3.2913,-7.57116 -7.9292,7.02538 c -25.9822,23.02036 -45.8132,34.69708 -59.0204,34.7518 -10.5152,0.0436 -20.331,-5.08145 -26.4836,-13.82757 -1.7997,-2.55824 -3.3933,-4.81303 -3.5413,-5.01064 -0.1481,-0.19762 -3.7826,2.10621 -8.0766,5.11961 -40.7281,28.58145 -81.8649,34.84529 -103.5403,15.76592 -2.365,-2.08183 -4.9089,-4.92269 -5.653,-6.31302 l -1.3529,-2.52786 -7.6819,5.69581 c -22.4569,16.65076 -48.6397,27.40523 -70.0793,28.78479 -14.4895,0.93235 -27.4827,-3.36038 -36.9363,-12.20312 l -4.6707,-4.36889 -7.038,5.75056 c -22.771,18.60572 -46.7772,27.30514 -64.0148,23.19789 z m 118.4796,-65.2109 c 7.776,-5.26438 21.414,-15.88523 25.9302,-20.19352 4.7599,-4.54077 5.2625,-7.08101 2.1774,-11.00311 -1.6386,-2.08322 -2.9334,-2.63486 -6.1843,-2.63486 -11.5097,0 -28.7431,16.53087 -28.7431,27.57134 0,3.65487 1.0379,9.42866 1.6948,9.42866 0.2447,0 2.5509,-1.42583 5.125,-3.16851 z m 124.8251,-17.44506 c 9.6883,-6.92363 21.1026,-16.04654 24.1051,-19.26591 1.2375,-1.32691 2.25,-3.28147 2.25,-4.34347 0,-2.98832 -5.3735,-7.77705 -8.7267,-7.77705 -7.3014,0 -21.5778,10.79601 -26.1639,19.78553 -2.7947,5.47815 -2.868,17.21447 -0.1075,17.21447 0.4334,0 4.3227,-2.52611 8.643,-5.61357 z"
         id="path84" />
      <path
         style="fill:#51ede9"
         d="m 1666.7729,-377.36163 c 0,-0.20765 0.7875,-0.99515 1.75,-1.75 1.5861,-1.24387 1.6214,-1.2085 0.3776,0.37756 -1.3064,1.66575 -2.1276,2.19548 -2.1276,1.37244 z"
         id="path83" />
      <path
         style="fill:#c56eec"
         d="m 1072.2546,-574.48407 c 0,-57.2 0.1207,-80.4531 0.2681,-51.67356 0.1475,28.77954 0.1474,75.57954 0,104 -0.1475,28.42046 -0.2682,4.87356 -0.2681,-52.32644 z"
         id="path82" />
      <path
         style="fill:#c26ce8"
         d="m 743.20297,-493.98407 c 0,-12.925 0.14251,-18.2125 0.3167,-11.75 0.17418,6.4625 0.17418,17.0375 0,23.5 -0.17419,6.4625 -0.3167,1.175 -0.3167,-11.75 z m 0.0256,-144.5 c 2.7e-4,-22 0.13226,-30.85753 0.29331,-19.6834 0.16105,11.17413 0.16083,29.17413 -4.9e-4,40 -0.16132,10.82587 -0.29309,1.6834 -0.29282,-20.3166 z"
         id="path81" />
      <path
         style="fill:#4fe5e1"
         d="m 832.64534,-201.73407 c -1.24387,-1.58606 -1.2085,-1.62143 0.37756,-0.37756 0.9625,0.75485 1.75,1.54235 1.75,1.75 0,0.82304 -0.82119,0.29331 -2.12756,-1.37244 z"
         id="path80" />
      <path
         style="fill:#4ad9d5"
         d="m 891.5854,-234.66718 c 0.72187,-0.28887 1.58437,-0.25335 1.91667,0.0789 0.33229,0.3323 -0.25834,0.56864 -1.3125,0.52522 -1.16495,-0.048 -1.4019,-0.28494 -0.60417,-0.60416 z m 738.1875,-98.69445 c 0,-0.20765 0.7875,-0.99515 1.75,-1.75 1.5861,-1.24387 1.6214,-1.2085 0.3776,0.37756 -1.3064,1.66575 -2.1276,2.19548 -2.1276,1.37244 z"
         id="path79" />
      <path
         style="fill:#49d4d1"
         d="m 1553.2729,-328.98407 c 0.9955,-1.1 2.035,-2 2.31,-2 0.275,0 -0.3145,0.9 -1.31,2 -0.9955,1.1 -2.035,2 -2.31,2 -0.275,0 0.3145,-0.9 1.31,-2 z"
         id="path78" />
      <path
         style="fill:#46cdc9"
         d="m 441.0049,-204.98407 c 0,-1.925 0.2058,-2.7125 0.45733,-1.75 0.25152,0.9625 0.25152,2.5375 0,3.5 -0.25153,0.9625 -0.45733,0.175 -0.45733,-1.75 z m 959.768,-114.37756 c 0,-0.20765 0.7875,-0.99515 1.75,-1.75 1.5861,-1.24387 1.6214,-1.2085 0.3776,0.37756 -1.3064,1.66575 -2.1276,2.19548 -2.1276,1.37244 z"
         id="path77" />
      <path
         style="fill:#45c9c5"
         d="m 896.2729,-271.98407 c 0.99549,-1.1 2.03497,-2 2.30997,-2 0.275,0 -0.31448,0.9 -1.30997,2 -0.99549,1.1 -2.03498,2 -2.30998,2 -0.275,0 0.31449,-0.9 1.30998,-2 z"
         id="path76" />
      <path
         style="fill:#a85ec9"
         d="m 1320.2579,-593.98407 c 0,-70.675 0.1192,-99.5875 0.2649,-64.25 0.1456,35.3375 0.1456,93.1625 0,128.5 -0.1457,35.3375 -0.2649,6.425 -0.2649,-64.25 z"
         id="path75" />
      <path
         style="fill:#44c5c2"
         d="m 1370.7729,-310.36163 c 0,-0.20765 0.7875,-0.99515 1.75,-1.75 1.5861,-1.24387 1.6214,-1.2085 0.3776,0.37756 -1.3064,1.66575 -2.1276,2.19548 -2.1276,1.37244 z"
         id="path74" />
      <path
         style="fill:#a45bc4"
         d="m 991.25794,-553.98407 c 0,-70.675 0.11918,-99.5875 0.26483,-64.25 0.14565,35.3375 0.14565,93.1625 0,128.5 -0.14565,35.3375 -0.26483,6.425 -0.26483,-64.25 z"
         id="path73" />
      <path
         style="fill:#42c1be"
         d="m 1577.7729,-365.36163 c 0,-0.20765 0.7875,-0.99515 1.75,-1.75 1.5861,-1.24387 1.6214,-1.2085 0.3776,0.37756 -1.3064,1.66575 -2.1276,2.19548 -2.1276,1.37244 z"
         id="path72" />
      <path
         style="fill:#a059bf"
         d="m 748.5834,-722.73216 c 7.87078,-0.16916 20.47078,-0.16875 28,9.2e-4 7.52923,0.16966 1.0895,0.30807 -14.3105,0.30756 -15.4,-5e-4 -21.56027,-0.13932 -13.6895,-0.30848 z m 164.49929,1.4e-4 c 7.59538,-0.1701 19.74538,-0.16966 27,9.7e-4 7.25461,0.17063 1.04021,0.3098 -13.80979,0.30926 -14.85,-5.3e-4 -20.7856,-0.14014 -13.19021,-0.31023 z m 163.94021,3.8e-4 c 7.5625,-0.16988 19.9375,-0.16988 27.5,0 7.5625,0.16989 1.375,0.30888 -13.75,0.30888 -15.125,0 -21.3125,-0.13899 -13.75,-0.30888 z m 125,8e-4 c 6.4625,-0.17418 17.0375,-0.17418 23.5,0 6.4625,0.17419 1.175,0.3167 -11.75,0.3167 -12.925,0 -18.2125,-0.14251 -11.75,-0.3167 z m 83,0 c 6.4625,-0.17418 17.0375,-0.17418 23.5,0 6.4625,0.17419 1.175,0.3167 -11.75,0.3167 -12.925,0 -18.2125,-0.14251 -11.75,-0.3167 z"
         id="path71" />
      <path
         style="fill:#40bdb9"
         d="m 487.96785,-228.48407 c 0.0204,-1.65 0.2445,-2.20394 0.49804,-1.23097 0.25354,0.97297 0.23687,2.32297 -0.0371,3 -0.27393,0.67703 -0.48137,-0.11903 -0.46099,-1.76903 z"
         id="path70" />
      <path
         style="fill:#3eb5b1"
         d="m 545.85185,-215.5674 c 0.048,-1.16495 0.28494,-1.4019 0.60416,-0.60417 0.28887,0.72188 0.25335,1.58438 -0.0789,1.91667 -0.3323,0.33229 -0.56864,-0.25834 -0.52522,-1.3125 z"
         id="path69" />
      <path
         style="fill:#3baca9"
         d="m 1628.7729,-296.36163 c 0,-0.20765 0.7875,-0.99515 1.75,-1.75 1.5861,-1.24387 1.6214,-1.2085 0.3776,0.37756 -1.3064,1.66575 -2.1276,2.19548 -2.1276,1.37244 z"
         id="path68" />
      <path
         style="fill:#9150ad"
         d="m 780.20297,-493.98407 c 0,-12.925 0.14251,-18.2125 0.3167,-11.75 0.17418,6.4625 0.17418,17.0375 0,23.5 -0.17419,6.4625 -0.3167,1.175 -0.3167,-11.75 z m -0.27218,-26 c 0,-1.375 0.22698,-1.9375 0.50439,-1.25 0.27741,0.6875 0.27741,1.8125 0,2.5 -0.27741,0.6875 -0.50439,0.125 -0.50439,-1.25 z m 0.26539,-23.5 c 8.1e-4,-11.55 0.14638,-16.13804 0.32348,-10.19565 0.17711,5.94239 0.17644,15.39239 -0.001,21 -0.17792,5.60761 -0.32282,0.74565 -0.322,-10.80435 z m -0.0451,-114.5 c 0,-6.325 0.16237,-8.9125 0.36082,-5.75 0.19845,3.1625 0.19845,8.3375 0,11.5 -0.19845,3.1625 -0.36082,0.575 -0.36082,-5.75 z m -0.10581,-16 c 0,-2.475 0.19502,-3.4875 0.43337,-2.25 0.23836,1.2375 0.23836,3.2625 0,4.5 -0.23835,1.2375 -0.43337,0.225 -0.43337,-2.25 z"
         id="path67" />
      <path
         style="fill:#8d4ea8"
         d="m 1109.2255,-507.48407 c 3e-4,-20.35 0.1336,-28.53307 0.2963,-18.1846 0.1626,10.34848 0.1624,26.99848 -6e-4,37 -0.163,10.00153 -0.2961,1.5346 -0.2957,-18.8154 z m -0.015,-144 c -5e-4,-14.85 0.1386,-21.0644 0.3093,-13.80979 0.1706,7.25462 0.171,19.40462 10e-4,27 -0.1701,7.59539 -0.3097,1.65979 -0.3103,-13.19021 z"
         id="path66" />
      <path
         style="fill:#38a5a2"
         d="m 1172.7729,-304.36163 c 0,-0.20765 0.7875,-0.99515 1.75,-1.75 1.5861,-1.24387 1.6214,-1.2085 0.3776,0.37756 -1.3064,1.66575 -2.1276,2.19548 -2.1276,1.37244 z"
         id="path65" />
      <path
         style="fill:#7d7d7d"
         d="m 858.5229,-162.64635 c 0.6875,-0.27741 1.8125,-0.27741 2.5,0 0.6875,0.27741 0.125,0.50439 -1.25,0.50439 -1.375,0 -1.9375,-0.22698 -1.25,-0.50439 z m 653,-83 c 0.6875,-0.27741 1.8125,-0.27741 2.5,0 0.6875,0.27741 0.125,0.50439 -1.25,0.50439 -1.375,0 -1.9375,-0.22698 -1.25,-0.50439 z"
         id="path64" />
      <path
         style="fill:#349895"
         d="m 1251.2729,-296.98407 c 0.9955,-1.1 2.035,-2 2.31,-2 0.275,0 -0.3145,0.9 -1.31,2 -0.9955,1.1 -2.035,2 -2.31,2 -0.275,0 0.3145,-0.9 1.31,-2 z"
         id="path63" />
      <path
         style="fill:#308d8a"
         d="m 754.5854,-280.66718 c 0.72187,-0.28887 1.58437,-0.25335 1.91667,0.0789 0.33229,0.3323 -0.25834,0.56864 -1.3125,0.52522 -1.16495,-0.048 -1.4019,-0.28494 -0.60417,-0.60416 z"
         id="path62" />
      <path
         style="fill:#6f3d84"
         d="m 861.25794,-553.98407 c 0,-70.675 0.11918,-99.5875 0.26483,-64.25 0.14565,35.3375 0.14565,93.1625 0,128.5 -0.14565,35.3375 -0.26483,6.425 -0.26483,-64.25 z"
         id="path61" />
      <path
         style="fill:#6c3c81"
         d="m 1190.2579,-594.48407 c 0,-70.4 0.1192,-99.05254 0.2649,-63.67231 0.1457,35.38022 0.1456,92.98022 -10e-5,128 -0.1457,35.01977 -0.2648,6.07231 -0.2648,-64.32769 z"
         id="path60" />
      <path
         style="fill:#693a7e"
         d="m 752.5229,-470.72914 c 5.0875,-0.18149 13.4125,-0.18149 18.5,0 5.0875,0.18149 0.925,0.32999 -9.25,0.32999 -10.175,0 -14.3375,-0.1485 -9.25,-0.32999 z m 329,0 c 5.0875,-0.18149 13.4125,-0.18149 18.5,0 5.0875,0.18149 0.925,0.32999 -9.25,0.32999 -10.175,0 -14.3375,-0.1485 -9.25,-0.32999 z m 164.4494,10e-4 c 4.7847,-0.18291 12.8847,-0.18377 18,-0.002 5.1153,0.18186 1.2006,0.33151 -8.6994,0.33256 -9.9,0.001 -14.0853,-0.14774 -9.3006,-0.33065 z"
         id="path59" />
      <path
         style="fill:#5c336e"
         d="m 1237.2577,-596.48407 c 0,-69.3 0.1193,-97.50258 0.2651,-62.6724 0.1458,34.83018 0.1458,91.53018 -10e-5,126 -0.1458,34.46982 -0.2651,5.9724 -0.265,-63.3276 z"
         id="path58" />
      <path
         style="fill:#256c6a"
         d="m 583.85185,-211.5674 c 0.048,-1.16495 0.28494,-1.4019 0.60416,-0.60417 0.28887,0.72188 0.25335,1.58438 -0.0789,1.91667 -0.3323,0.33229 -0.56864,-0.25834 -0.52522,-1.3125 z"
         id="path57" />
      <path
         style="fill:#955c04"
         d="m 410.54964,-330.06671 c -5.74144,-0.84142 -13.67596,-3.76753 -19.27425,-7.10801 -5.25708,-3.13688 -14.20176,-12.76663 -17.30652,-18.63203 -6.66513,-12.59149 -6.19597,3.05805 -6.19597,-206.67732 0,-171.12645 0.15951,-190.68006 1.59538,-195.5685 5.05707,-17.21689 18.12071,-30.38476 35.31355,-35.59531 3.65775,-1.10853 106.58121,-1.33619 604.09347,-1.33619 593.0872,0 599.7472,0.0216 605.3838,1.96083 9.3244,3.20806 15.4069,7.06309 21.6145,13.69902 6.3624,6.80151 11.1462,15.7573 12.8942,24.13937 0.7823,3.75119 1.1051,56.1716 1.1051,179.44528 v 174.14606 l -2.6208,2.73553 -2.6208,2.73554 -3.6292,-3.53086 c -8.6824,-8.44711 -18.722,-11.83895 -32.6292,-11.02363 -4.95,0.29019 -11.4744,1.20291 -14.4987,2.02826 -3.0242,0.82534 -5.5868,1.41239 -5.6947,1.30454 -0.1078,-0.10785 0.2183,-1.98346 0.7248,-4.16801 1.6778,-7.23675 1.1513,-22.66985 -1.0125,-29.67529 -2.9132,-9.43177 -10.4543,-17.42897 -21.6808,-22.99188 -7.8492,-3.88945 -9.2656,-4.25289 -18.0763,-4.63824 -24.6876,-1.07975 -41.2485,9.26244 -57.4062,35.84982 -3.7009,6.0899 -12.1792,25.36108 -16.1608,36.73366 l -2.1882,6.25 h -4.5432 c -9.9023,0 -26.5814,6.79149 -47.4416,19.3175 l -8.9782,5.39119 -4.4015,-4.89555 c -5.597,-6.22516 -10.8408,-9.78746 -19.6421,-13.34339 -6.2315,-2.5177 -8.2625,-2.8338 -18.5,-2.87941 -14.8617,-0.0662 -26.3965,2.99594 -44.7306,11.87463 -12.7458,6.17246 -30.8057,17.06643 -33.3252,20.10224 -1.0339,1.24574 -1.9834,0.74333 -6.3302,-3.34947 -20.0711,-18.8979 -47.9351,-19.13897 -84.586,-0.73181 -10.1883,5.11688 -25.9201,15.20491 -34.0094,21.80856 l -5.4814,4.47472 -5.0186,-4.53722 c -10.6816,-9.65705 -23.9043,-13.36655 -38.5049,-10.80213 -7.4607,1.31039 -8.7567,1.31335 -10.7238,0.0245 -3.6079,-2.36399 -13.2002,-4.45709 -20.25,-4.41869 -8.2177,0.0448 -16.2642,1.94491 -24.4424,5.77195 l -6.368,2.97997 -0.6163,-4.64377 c -1.4109,-10.63234 -10.2613,-23.52737 -19.9043,-29.00042 -14.1037,-8.00488 -29.8529,-8.19423 -56.57768,-0.68024 -26.07334,7.33082 -65.37303,25.34308 -95.45463,43.7498 l -7.8234,4.78709 -22.6766,-0.004 -22.67659,-0.004 -1.91524,-4.65626 c -2.6233,-6.37769 -12.59696,-16.26639 -20.08476,-19.91366 -5.44277,-2.65116 -6.92871,-2.918 -16,-2.87329 -7.68998,0.0379 -12.31002,0.68262 -20,2.79094 -13.07369,3.58435 -29.94835,10.34693 -45.60437,18.27613 l -12.60437,6.38364 H 603.92969 494.79521 l -7.76115,-2.20871 c -10.74806,-3.05873 -24.6404,-3.05081 -32.04818,0.0183 -4.77216,1.97713 -6.91458,2.17857 -22,2.0685 -9.19214,-0.0671 -19.28845,-0.49938 -22.43624,-0.9607 z m 387.22326,-79.96222 c 22.45318,-3.55713 41.42313,-23.55549 45.01476,-47.45514 0.7027,-4.67597 0.95455,-45.01452 0.75858,-121.5 -0.27662,-107.96217 -0.39816,-114.81404 -2.12873,-120 -4.73755,-14.19689 -15.48103,-27.52288 -27.14461,-33.6696 -11.2144,-5.91001 -14.69826,-6.33197 -52.14434,-6.31562 -26.66008,0.0116 -35.21737,0.33576 -40.26259,1.525 -18.61317,4.38744 -34.45753,20.13015 -39.82864,39.57312 -1.63946,5.93472 -1.76443,14.67392 -1.76443,123.3871 0,107.65002 0.13768,117.49744 1.72282,123.22467 5.69587,20.57959 22.64832,37.02236 42.13402,40.86724 7.75456,1.53011 64.51057,1.81005 73.64316,0.36323 z m -38,-101.45514 c 0,-13.475 0.1882,-24.5 0.41821,-24.5 0.23002,0 1.13002,-0.27314 2,-0.60699 1.4165,-0.54356 1.58179,2.01655 1.58179,24.5 0,24.44032 -0.0531,25.10699 -2,25.10699 -1.94558,0 -2,-0.66667 -2,-24.5 z m 0,-132 c 0,-16.83333 0.0762,-17.5 2,-17.5 1.92107,0 2,0.66667 2,16.89301 0,14.48173 -0.22578,16.97965 -1.58179,17.5 -0.86998,0.33385 -1.76998,0.60699 -2,0.60699 -0.23001,0 -0.41821,-7.875 -0.41821,-17.5 z m 165,177.60699 c 0,-49.64908 0.19099,-56.9663 1.5,-57.46862 1.32261,-0.50753 1.5,6.22064 1.5,56.89301 v 57.46862 h 40 40 l -0.015,-140.75 c -0.016,-154.63476 0.2831,-146.82325 -6.112,-159.51027 -4.39585,-8.72067 -16.33301,-20.45189 -24.8732,-24.44406 -10.48491,-4.90125 -14.2714,-5.29567 -50.83912,-5.29567 -36.54813,0 -39.4109,0.3198 -50.79046,5.67388 -8.19331,3.85495 -19.86624,15.70044 -24.18177,24.53926 -6.41366,13.13605 -6.15219,6.35557 -6.17129,160.03686 l -0.0174,139.75 h 40 40 z m 0,-171.02366 c 0,-20.86835 0.20266,-24.08333 1.5181,-24.08333 1.32225,0 1.48351,3.05322 1.25,23.66722 -0.20221,17.85052 -0.57531,23.76949 -1.5181,24.08334 -0.97692,0.3252 -1.25,-4.8453 -1.25,-23.66723 z m 247.7689,85.66667 c -0.2635,-135.08055 -0.3703,-142.5272 -2.1186,-147.75 -6.4035,-19.1298 -21.3793,-33.82921 -39.1919,-38.46881 -8.7296,-2.27377 -71.9504,-2.23231 -80.8141,0.053 -18.0601,4.65643 -32.9043,19.24212 -38.71,38.0357 l -2.4343,7.88011 v 117 c 0,108.71318 0.125,117.45238 1.7644,123.3871 2.7301,9.88263 7.4819,17.9144 15.2052,25.70048 7.9796,8.0445 18.375,13.81911 27.5304,15.29312 3.025,0.48702 31.0479,0.9381 62.2732,1.0024 l 56.7731,0.1169 z m -83.7689,49.85699 c 0,-12.20205 0.2408,-14.48541 1.5818,-15 0.87,-0.33384 1.77,-0.60699 2,-0.60699 0.23,0 0.4182,6.75 0.4182,15 0,14.33333 -0.089,15 -2,15 -1.9074,0 -2,-0.66667 -2,-14.39301 z m 0,-132.10699 c 0,-26.83333 0.049,-27.5 2,-27.5 1.9504,0 2,0.66667 2,26.89301 0,23.60042 -0.1937,26.96733 -1.5818,27.5 -0.87,0.33385 -1.77,0.60699 -2,0.60699 -0.23,0 -0.4182,-12.375 -0.4182,-27.5 z m 210.0721,221.69462 c 17.5659,-5.78684 31.7069,-21.18812 36.41,-39.65472 1.3218,-5.19008 1.5179,-24.14946 1.5179,-146.75 v -140.7899 h -40 -40 v 126 c 0,111.33333 -0.1746,126 -1.5,126 -1.3254,0 -1.5,-14.66667 -1.5,-126 v -126 h -40 -40 l 0.017,139.25 c 0.019,150.7872 -0.1356,146.25924 5.3976,158.34532 7.3245,15.99871 23.1204,28.40155 39.9317,31.354 2.8343,0.49777 20.4533,0.79375 39.1533,0.65772 31.7989,-0.23131 34.4255,-0.38748 40.5721,-2.41242 z"
         id="path56" />
      <path
         style="fill:#59316a"
         d="m 908.23882,-478.98407 c 0,-29.425 0.12752,-41.4625 0.28337,-26.75 0.15586,14.7125 0.15586,38.7875 0,53.5 -0.15585,14.7125 -0.28337,2.675 -0.28337,-26.75 z m -0.005,-153 c 0,-25.575 0.1295,-36.0375 0.28778,-23.25 0.15828,12.7875 0.15828,33.7125 0,46.5 -0.15828,12.7875 -0.28778,2.325 -0.28778,-23.25 z"
         id="path55" />
      <path
         style="fill:#915903"
         d="m 1026.7729,-724.36163 c 0,-0.20765 0.7875,-0.99515 1.75,-1.75 1.5861,-1.24387 1.6214,-1.2085 0.3776,0.37756 -1.3064,1.66575 -2.1276,2.19548 -2.1276,1.37244 z"
         id="path54" />
      <path
         style="fill:#8e5803"
         d="m 1009.2553,-573.98407 c 0,-59.675 0.1203,-84.0875 0.2674,-54.25 0.1471,29.8375 0.1471,78.6625 0,108.5 -0.1471,29.8375 -0.2674,5.425 -0.2674,-54.25 z"
         id="path53" />
      <path
         style="fill:#8c5603"
         d="m 680.25539,-574.48407 c -4e-5,-59.95 0.12024,-84.62203 0.26729,-54.82674 0.14705,29.79529 0.14709,78.84529 8e-5,109 -0.14701,30.15471 -0.26733,5.77674 -0.26737,-54.17326 z"
         id="path52" />
      <path
         style="fill:#865203"
         d="m 713.0229,-795.73406 c 162.6625,-0.13934 428.8375,-0.13934 591.5,0 162.6625,0.13934 29.575,0.25334 -295.75,0.25334 -325.325,0 -458.4125,-0.114 -295.75,-0.25334 z"
         id="path51" />
      <path
         style="fill:#794a03"
         d="m 1257.2577,-612.48407 c 0,-69.3 0.1193,-97.50258 0.2651,-62.6724 0.1458,34.83018 0.1458,91.53018 -10e-5,126 -0.1458,34.46982 -0.2651,5.9724 -0.265,-63.3276 z"
         id="path50" />
      <path
         style="fill:#764802"
         d="m 928.11571,-417.48407 c 0.004,-4.4 0.17944,-6.0756 0.39069,-3.72357 0.21124,2.35204 0.20827,5.95204 -0.007,8 -0.21488,2.04797 -0.38771,0.12357 -0.38408,-4.27643 z m 0,-16 c 0.004,-4.4 0.17944,-6.0756 0.39069,-3.72357 0.21124,2.35204 0.20827,5.95204 -0.007,8 -0.21488,2.04797 -0.38771,0.12357 -0.38408,-4.27643 z m 0.11138,-46.5 c 0,-21.175 0.13253,-29.8375 0.2945,-19.25 0.16197,10.5875 0.16197,27.9125 0,38.5 -0.16197,10.5875 -0.2945,1.925 -0.2945,-19.25 z m -0.37524,-40.58333 c 0.048,-1.16495 0.28494,-1.4019 0.60416,-0.60417 0.28887,0.72188 0.25335,1.58438 -0.0789,1.91667 -0.3323,0.33229 -0.56864,-0.25834 -0.52522,-1.3125 z m 0.3523,-116.91667 c 6.6e-4,-13.2 0.14295,-18.46169 0.31621,-11.69265 0.17326,6.76904 0.17273,17.56904 -10e-4,24 -0.17391,6.43096 -0.31567,0.89265 -0.31502,-12.30735 z"
         id="path49" />
      <path
         style="fill:#6e4402"
         d="m 1284.1779,-357.23407 -1.905,-2.25 2.25,1.90499 c 2.1144,1.79022 2.7052,2.59501 1.905,2.59501 -0.1898,0 -1.2023,-1.0125 -2.25,-2.25 z m -535.5945,-52.49809 c 7.87078,-0.16916 20.47078,-0.16875 28,9.2e-4 7.52923,0.16966 1.0895,0.30807 -14.3105,0.30756 -15.4,-5e-4 -21.56027,-0.13932 -13.6895,-0.30848 z m 116.4395,-6.6e-4 c 10.8625,-0.16144 28.6375,-0.16144 39.5,0 10.8625,0.16144 1.975,0.29353 -19.75,0.29353 -21.725,0 -30.6125,-0.13209 -19.75,-0.29353 z m 83,0 c 10.8625,-0.16144 28.6375,-0.16144 39.5,0 10.8625,0.16144 1.975,0.29353 -19.75,0.29353 -21.725,0 -30.6125,-0.13209 -19.75,-0.29353 z m 142.5,-5.7e-4 c 14.9875,-0.15555 39.5125,-0.15555 54.5,0 14.9875,0.15556 2.725,0.28283 -27.25,0.28283 -29.975,0 -42.2375,-0.12727 -27.25,-0.28283 z m 151.5598,10e-4 c 7.5954,-0.1701 19.7454,-0.16966 27,9.7e-4 7.2546,0.17063 1.0402,0.3098 -13.8098,0.30926 -14.85,-5.3e-4 -20.7856,-0.14014 -13.1902,-0.31023 z M 760.5229,-661.64635 c 0.6875,-0.27741 1.8125,-0.27741 2.5,0 0.6875,0.27741 0.125,0.50439 -1.25,0.50439 -1.375,0 -1.9375,-0.22698 -1.25,-0.50439 z m 165.0625,-0.0208 c 0.72187,-0.28887 1.58437,-0.25335 1.91667,0.0789 0.33229,0.3323 -0.25834,0.56864 -1.3125,0.52522 -1.16495,-0.048 -1.4019,-0.28494 -0.60417,-0.60416 z m 163.9375,0.0208 c 0.6875,-0.27741 1.8125,-0.27741 2.5,0 0.6875,0.27741 0.125,0.50439 -1.25,0.50439 -1.375,0 -1.9375,-0.22698 -1.25,-0.50439 z"
         id="path48" />
      <path
         style="fill:#694002"
         d="m 843.25333,-562.48407 c 6e-5,-53.35 0.12128,-75.02832 0.26939,-48.17403 0.14811,26.85428 0.14807,70.50428 -9e-5,97 -0.14817,26.49571 -0.26935,4.52403 -0.2693,-48.82597 z m -0.22825,-101 c 0.0111,-2.2 0.21589,-2.98225 0.45508,-1.73834 0.23919,1.24391 0.23011,3.04391 -0.0202,4 -0.25029,0.95609 -0.446,-0.0617 -0.4349,-2.26166 z m 0.084,-11.5 c 0,-4.125 0.17651,-5.8125 0.39226,-3.75 0.21574,2.0625 0.21574,5.4375 0,7.5 -0.21575,2.0625 -0.39226,0.375 -0.39226,-3.75 z"
         id="path47" />
      <path
         style="fill:#674002"
         d="m 1172.2563,-524.48407 c 0,-63.25 0.1199,-88.97782 0.2665,-57.17293 0.1465,31.80489 0.1465,83.55489 -10e-5,115 -0.1466,31.44511 -0.2665,5.42293 -0.2664,-57.82707 z m -0.2312,-119 c 0.011,-2.2 0.2159,-2.98225 0.4551,-1.73834 0.2392,1.24391 0.2301,3.04391 -0.02,4 -0.2503,0.95609 -0.446,-0.0617 -0.4349,-2.26166 z m 0.1591,-21.5 c 0,-9.625 0.15,-13.5625 0.3333,-8.75 0.1833,4.8125 0.1833,12.6875 0,17.5 -0.1833,4.8125 -0.3333,0.875 -0.3333,-8.75 z"
         id="path46" />
      <path
         style="fill:#3b2046"
         d="m 1156.2535,-523.48407 c 10e-5,-53.9 0.1212,-75.80328 0.2692,-48.67396 0.148,27.12932 0.148,71.22932 -10e-5,98 -0.148,26.77068 -0.2691,4.57396 -0.2691,-49.32604 z m -0.073,-142.5 c 0,-9.075 0.1516,-12.7875 0.3369,-8.25 0.1853,4.5375 0.1853,11.9625 0,16.5 -0.1853,4.5375 -0.3369,0.825 -0.3369,-8.25 z"
         id="path45" />
      <path
         style="fill:#371e42"
         d="m 827.25144,-553.48407 c -6e-5,-48.4 0.12195,-68.34636 0.27113,-44.32525 0.14918,24.02111 0.14923,63.62111 1.1e-4,88 -0.14912,24.37889 -0.27117,4.72525 -0.27124,-43.67475 z m -0.15847,-122.5 c 0,-3.575 0.1815,-5.0375 0.40333,-3.25 0.22182,1.7875 0.22182,4.7125 0,6.5 -0.22183,1.7875 -0.40333,0.325 -0.40333,-3.25 z"
         id="path44" />
      <path
         style="fill:#341c3e"
         d="m 748.5834,-425.73216 c 7.87078,-0.16916 20.47078,-0.16875 28,9.2e-4 7.52923,0.16966 1.0895,0.30807 -14.3105,0.30756 -15.4,-5e-4 -21.56027,-0.13932 -13.6895,-0.30848 z m 124.4395,0.001 c 6.4625,-0.17418 17.0375,-0.17418 23.5,0 6.4625,0.17419 1.175,0.3167 -11.75,0.3167 -12.925,0 -18.2125,-0.14251 -11.75,-0.3167 z m 83,0 c 6.4625,-0.17418 17.0375,-0.17418 23.5,0 6.4625,0.17419 1.175,0.3167 -11.75,0.3167 -12.925,0 -18.2125,-0.14251 -11.75,-0.3167 z m 130.5,-0.002 c 12.7875,-0.15828 33.7125,-0.15828 46.5,0 12.7875,0.15828 2.325,0.28778 -23.25,0.28778 -25.575,0 -36.0375,-0.1295 -23.25,-0.28778 z m 155.5,0.002 c 7.5625,-0.16988 19.9375,-0.16988 27.5,0 7.5625,0.16989 1.375,0.30888 -13.75,0.30888 -15.125,0 -21.3125,-0.13899 -13.75,-0.30888 z"
         id="path43" />
      <path
         style="fill:#2d2d2d"
         d="m 827.7729,-292.48407 c 1.29175,-1.375 2.57363,-2.5 2.84863,-2.5 0.275,0 -0.55688,1.125 -1.84863,2.5 -1.29175,1.375 -2.57363,2.5 -2.84863,2.5 -0.275,0 0.55688,-1.125 1.84863,-2.5 z"
         id="path42" />
      <path
         style="fill:#513101"
         d="m 924.24048,-465.98407 c 0,-31.075 0.1268,-43.7875 0.28178,-28.25 0.15498,15.5375 0.15498,40.9625 0,56.5 -0.15498,15.5375 -0.28178,2.825 -0.28178,-28.25 z m -0.034,-170.5 c -6.1e-4,-13.75 0.14023,-19.5137 0.31298,-12.80822 0.17275,6.70549 0.17325,17.95549 10e-4,25 -0.17214,7.04452 -0.31348,1.55822 -0.31409,-12.19178 z"
         id="path41" />
      <path
         style="fill:#4e3001"
         d="m 1253.2555,-596.48407 c 10e-5,-60.5 0.1203,-85.10294 0.2673,-54.6732 0.1469,30.42974 0.1469,79.92974 -10e-5,110 -0.147,30.07026 -0.2672,5.1732 -0.2672,-55.3268 z m -0.1398,-118 c 0,-4.4 0.1795,-6.0756 0.3907,-3.72357 0.2112,2.35204 0.2083,5.95204 -0.01,8 -0.2149,2.04797 -0.3877,0.12357 -0.3841,-4.27643 z m 0,-16 c 0,-4.4 0.1795,-6.0756 0.3907,-3.72357 0.2112,2.35204 0.2083,5.95204 -0.01,8 -0.2149,2.04797 -0.3877,0.12357 -0.3841,-4.27643 z"
         id="path40" />
      <path
         style="fill:#4a2d01"
         d="m 760.5229,-486.64635 c 0.6875,-0.27741 1.8125,-0.27741 2.5,0 0.6875,0.27741 0.125,0.50439 -1.25,0.50439 -1.375,0 -1.9375,-0.22698 -1.25,-0.50439 z m 329,0 c 0.6875,-0.27741 1.8125,-0.27741 2.5,0 0.6875,0.27741 0.125,0.50439 -1.25,0.50439 -1.375,0 -1.9375,-0.22698 -1.25,-0.50439 z m 165.0625,-0.0208 c 0.7219,-0.28887 1.5844,-0.25335 1.9167,0.0789 0.3323,0.3323 -0.2584,0.56864 -1.3125,0.52522 -1.165,-0.048 -1.4019,-0.28494 -0.6042,-0.60416 z"
         id="path39" />
      <path
         style="fill:#442a01"
         d="m 1174.2588,-601.98407 c 0,-75.075 0.1188,-105.7875 0.264,-68.25 0.1452,37.5375 0.1452,98.9625 0,136.5 -0.1452,37.5375 -0.264,6.825 -0.264,-68.25 z"
         id="path38" />
      <path
         style="fill:#412801"
         d="m 845.25879,-545.98407 c 0,-75.075 0.1188,-105.7875 0.26399,-68.25 0.1452,37.5375 0.1452,98.9625 0,136.5 -0.14519,37.5375 -0.26399,6.825 -0.26399,-68.25 z"
         id="path37" />
      <path
         style="fill:#24132b"
         d="m 944.24357,-488.48407 c 1.2e-4,-34.65 0.12563,-48.67998 0.27892,-31.17773 0.15328,17.50225 0.15319,45.85225 -2.2e-4,63 -0.1534,17.14775 -0.27882,2.82773 -0.2787,-31.82227 z m -0.0181,-153 c 3.1e-4,-20.35 0.13365,-28.53307 0.29631,-18.1846 0.16266,10.34848 0.16241,26.99848 -5.6e-4,37 -0.16297,10.00153 -0.29606,1.5346 -0.29575,-18.8154 z"
         id="path36" />
      <path
         style="fill:#392200"
         d="m 367.26233,-562.48407 c -1e-5,-101.2 0.11721,-142.74821 0.26049,-92.32936 0.14329,50.41885 0.1433,133.21885 3e-5,184 -0.14327,50.78115 -0.2605,9.52936 -0.26052,-91.67064 z"
         id="path35" />
      <path
         style="fill:#201126"
         d="m 1273.2577,-596.48407 c 0,-69.3 0.1193,-97.50258 0.2651,-62.6724 0.1458,34.83018 0.1458,91.53018 -10e-5,126 -0.1458,34.46982 -0.2651,5.9724 -0.265,-63.3276 z"
         id="path34" />
      <path
         style="fill:#1d1d1d"
         d="m 394.5229,-306.73058 c 6.1875,-0.17544 16.3125,-0.17544 22.5,0 6.1875,0.17545 1.125,0.319 -11.25,0.319 -12.375,0 -17.4375,-0.14355 -11.25,-0.319 z m 126.5,0.0303 c 1.5125,-0.22913 3.9875,-0.22913 5.5,0 1.5125,0.22912 0.275,0.41659 -2.75,0.41659 -3.025,0 -4.2625,-0.18747 -2.75,-0.41659 z m 106.5,-0.0321 c 9.4875,-0.16436 25.0125,-0.16436 34.5,0 9.4875,0.16436 1.725,0.29883 -17.25,0.29883 -18.975,0 -26.7375,-0.13447 -17.25,-0.29883 z m 206,0.025 c 1.7875,-0.22182 4.7125,-0.22182 6.5,0 1.7875,0.22183 0.325,0.40333 -3.25,0.40333 -3.575,0 -5.0375,-0.1815 -3.25,-0.40333 z"
         id="path33" />
      <path
         style="fill:#0a2121"
         d="m 1551.7729,-328.36163 c 0,-0.20765 0.7875,-0.99515 1.75,-1.75 1.5861,-1.24387 1.6214,-1.2085 0.3776,0.37756 -1.3064,1.66575 -2.1276,2.19548 -2.1276,1.37244 z"
         id="path32" />
      <path
         style="fill:#2d1c00"
         d="m 1093.1777,-502.48407 c 0,-8.8 0.1542,-12.26613 0.34,-7.70252 0.1857,4.56362 0.1846,11.76362 0,16 -0.187,4.23639 -0.339,0.50252 -0.3377,-8.29748 z m 0.034,-131.5 c 0,-15.125 0.139,-21.3125 0.3089,-13.75 0.1698,7.5625 0.1698,19.9375 0,27.5 -0.1699,7.5625 -0.3089,1.375 -0.3089,-13.75 z"
         id="path31" />
      <path
         style="fill:#091e1d"
         d="m 985.7729,-180.36163 c 0,-0.20765 0.7875,-0.99515 1.75,-1.75 1.58606,-1.24387 1.62143,-1.2085 0.37755,0.37756 -1.30636,1.66575 -2.12755,2.19548 -2.12755,1.37244 z"
         id="path30" />
      <path
         style="fill:#2a1900"
         d="m 764.2086,-512.48407 c 5.7e-4,-14.3 0.14102,-20.01094 0.31211,-12.69097 0.17108,7.31996 0.17062,19.01996 -10e-4,26 -0.17166,6.98003 -0.31164,0.99097 -0.31107,-13.30903 z m -0.0265,-132 c -10e-4,-9.35 0.14916,-13.30959 0.33401,-8.7991 0.18486,4.51049 0.1858,12.16049 0.002,17 -0.1837,4.83951 -0.33495,1.1491 -0.3361,-8.2009 z"
         id="path29" />
      <path
         style="fill:#151515"
         d="m 1683.2621,-590.98407 c 0,-99.275 0.1173,-139.8875 0.2607,-90.25 0.1434,49.6375 0.1434,130.8625 0,180.5 -0.1434,49.6375 -0.2607,9.025 -0.2607,-90.25 z"
         id="path28" />
      <path
         style="fill:#241600"
         d="m 748.5834,-738.73216 c 7.87078,-0.16916 20.47078,-0.16875 28,9.2e-4 7.52923,0.16966 1.0895,0.30807 -14.3105,0.30756 -15.4,-5e-4 -21.56027,-0.13932 -13.6895,-0.30848 z m 164.49929,1.4e-4 c 7.59538,-0.1701 19.74538,-0.16966 27,9.7e-4 7.25461,0.17063 1.04021,0.3098 -13.80979,0.30926 -14.85,-5.3e-4 -20.7856,-0.14014 -13.19021,-0.31023 z m 163.94021,3.8e-4 c 7.5625,-0.16988 19.9375,-0.16988 27.5,0 7.5625,0.16989 1.375,0.30888 -13.75,0.30888 -15.125,0 -21.3125,-0.13899 -13.75,-0.30888 z m 117,-10e-4 c 10.8625,-0.16144 28.6375,-0.16144 39.5,0 10.8625,0.16144 1.975,0.29353 -19.75,0.29353 -21.725,0 -30.6125,-0.13209 -19.75,-0.29353 z m 83,0 c 10.8625,-0.16144 28.6375,-0.16144 39.5,0 10.8625,0.16144 1.975,0.29353 -19.75,0.29353 -21.725,0 -30.6125,-0.13209 -19.75,-0.29353 z"
         id="path27" />
      <path
         style="fill:#061515"
         d="m 897.2729,-271.98407 c 0.99549,-1.1 2.03497,-2 2.30997,-2 0.275,0 -0.31448,0.9 -1.30997,2 -0.99549,1.1 -2.03498,2 -2.30998,2 -0.275,0 0.31449,-0.9 1.30998,-2 z m 500.5,-45.37756 c 0,-0.20765 0.7875,-0.99515 1.75,-1.75 1.5861,-1.24387 1.6214,-1.2085 0.3776,0.37756 -1.3064,1.66575 -2.1276,2.19548 -2.1276,1.37244 z"
         id="path26" />
      <path
         style="fill:#1d1100"
         d="m 1007.2588,-545.98407 c 0,-75.075 0.1188,-105.7875 0.264,-68.25 0.1452,37.5375 0.1452,98.9625 0,136.5 -0.1452,37.5375 -0.264,6.825 -0.264,-68.25 z"
         id="path25" />
      <path
         style="fill:#1a1000"
         d="m 1650.2616,-573.98407 c 0,-94.875 0.1176,-133.6875 0.2612,-86.25 0.1437,47.4375 0.1437,125.0625 0,172.5 -0.1436,47.4375 -0.2612,8.625 -0.2612,-86.25 z m -314.0028,-28 c 0,-75.075 0.1188,-105.7875 0.264,-68.25 0.1452,37.5375 0.1452,98.9625 0,136.5 -0.1452,37.5375 -0.264,6.825 -0.264,-68.25 z"
         id="path24" />
      <path
         style="fill:#090909"
         d="m 1003.7729,-159.36163 c 0,-0.20765 0.7875,-0.99515 1.75,-1.75 1.5861,-1.24387 1.6214,-1.2085 0.3776,0.37756 -1.3064,1.66575 -2.1276,2.19548 -2.1276,1.37244 z"
         id="path23" />
      <path
         style="fill:#070308"
         d="m 696.16746,-480.48407 c 0.002,-7.7 0.15853,-10.71781 0.34883,-6.70625 0.1903,4.01156 0.18902,10.31156 -0.003,14 -0.19186,3.68844 -0.34755,0.40625 -0.34599,-7.29375 z m 0.0602,-80 c 2.8e-4,-21.45 0.1327,-30.0827 0.29426,-19.18378 0.16156,10.89892 0.16133,28.44892 -5.1e-4,39 -0.16185,10.55108 -0.29404,1.63378 -0.29375,-19.81622 z m 0.002,-80.5 c 0,-22.825 0.13128,-32.1625 0.29172,-20.75 0.16044,11.4125 0.16044,30.0875 0,41.5 -0.16044,11.4125 -0.29172,2.075 -0.29172,-20.75 z"
         id="path22" />
      <path
         style="fill:#090400"
         d="m 759.20645,-511.48407 c -6.1e-4,-13.75 0.14023,-19.5137 0.31298,-12.80822 0.17275,6.70549 0.17325,17.95549 10e-4,25 -0.17214,7.04452 -0.31348,1.55822 -0.31409,-12.19178 z m -0.0185,-131.5 c 0,-10.175 0.1485,-14.3375 0.32999,-9.25 0.18149,5.0875 0.18149,13.4125 0,18.5 -0.18149,5.0875 -0.32999,0.925 -0.32999,-9.25 z"
         id="path21" />
      <path
         style="fill:#000505"
         d="m 491.7729,-157.36163 c 0,-0.20765 0.7875,-0.99515 1.75,-1.75 1.58606,-1.24387 1.62143,-1.2085 0.37755,0.37756 -1.30636,1.66575 -2.12755,2.19548 -2.12755,1.37244 z m -51.92105,-30.20577 c 0.048,-1.16495 0.28494,-1.4019 0.60416,-0.60417 0.28887,0.72188 0.25335,1.58438 -0.0789,1.91667 -0.3323,0.33229 -0.56864,-0.25834 -0.52522,-1.3125 z M 1629.7729,-296.48407 c 1.2917,-1.375 2.5736,-2.5 2.8486,-2.5 0.275,0 -0.5569,1.125 -1.8486,2.5 -1.2917,1.375 -2.5736,2.5 -2.8486,2.5 -0.275,0 0.5569,-1.125 1.8486,-2.5 z m -456.5,-9.5 c 0.9955,-1.1 2.035,-2 2.31,-2 0.275,0 -0.3145,0.9 -1.31,2 -0.9955,1.1 -2.035,2 -2.31,2 -0.275,0 0.3145,-0.9 1.31,-2 z"
         id="path20" />
      <path
         style="fill:#050200"
         d="m 1283.6972,-356.73407 -2.4243,-2.75 2.75,2.42431 c 2.5703,2.26589 3.2086,3.07569 2.4243,3.07569 -0.1791,0 -1.4166,-1.2375 -2.75,-2.75 z m -195.5244,-144.75 c 0,-8.25 0.1563,-11.49193 0.3442,-7.20429 0.1879,4.28763 0.1868,11.03763 0,15 -0.1893,3.96236 -0.3431,0.45429 -0.3417,-7.79571 z m 0.042,-132 c 5e-4,-15.95 0.1385,-22.33497 0.3068,-14.18883 0.1683,8.14615 0.1679,21.19615 -9e-4,29 -0.1687,7.80386 -0.3064,1.13883 -0.3059,-14.81117 z"
         id="path19" />
      <path
         style="fill:#020002"
         d="m 1025.2552,-574.48407 c 10e-5,-59.4 0.1205,-83.55299 0.2676,-53.67332 0.147,29.87968 0.147,78.47968 -10e-5,108 -0.1472,29.52033 -0.2675,5.07332 -0.2675,-54.32668 z"
         id="path18" />
      <path
         style="fill:#000202"
         d="m 1250.7729,-295.36163 c 0,-0.20765 0.7875,-0.99515 1.75,-1.75 1.5861,-1.24387 1.6214,-1.2085 0.3776,0.37756 -1.3064,1.66575 -2.1276,2.19548 -2.1276,1.37244 z"
         id="path17" />
      <path
         style="fill:#000000"
         d="m 350.2729,-85.388247 c -22.43773,-7.126143 -32.15058,-26.382823 -25.07536,-49.714343 2.35944,-7.78055 3.49707,-9.76074 39.28568,-68.38148 6.04406,-9.9 19.20173,-31.48676 29.23927,-47.97057 10.03755,-16.48381 22.01397,-35.60881 26.61427,-42.5 l 8.36419,-12.52943 -28.21403,-0.51443 c -26.08704,-0.47566 -28.60151,-0.6786 -33.354,-2.69205 -12.78806,-5.41779 -21.58195,-13.38786 -27.34012,-24.77886 -6.32086,-12.50411 -5.98422,0.35584 -5.99498,-229.01466 -0.007,-138.53267 0.33738,-211.19157 1.01994,-215.5 1.57117,-9.91746 6.82151,-20.05156 14.22314,-27.45319 6.43975,-6.43974 12.04151,-9.83156 21.732,-13.15853 5.36883,-1.84325 20.57277,-1.88828 637.5,-1.88828 609.4083,0 632.2145,0.0654 638,1.82867 16.4539,5.01479 29.6374,17.81771 34.5233,33.52667 1.9389,6.23365 1.9767,9.89178 1.9767,191.06095 v 184.70561 l 4.7707,1.22269 c 7.2731,1.86404 14.4573,6.45189 20.3108,12.97047 l 5.2948,5.89642 6.0618,-3.07715 c 5.551,-2.81779 6.9048,-3.07956 16.0619,-3.10574 8.9696,-0.0256 10.5898,0.26105 15.7244,2.78244 7.1219,3.49727 14.649,11.71442 17.3148,18.90205 1.4613,3.94017 1.9466,7.70688 1.905,14.78692 -0.049,8.26768 -0.4723,10.55122 -3.2664,17.60386 -6.3993,16.15294 -11.1044,21.96174 -63.0955,77.89614 l -24.1671,26 -6.9178,13.5 c -8.1201,15.84633 -13.4305,22.33115 -22.1643,27.06641 -6.073,3.29259 -6.7651,3.43359 -16.8541,3.43359 -9.8152,0 -10.9557,-0.21441 -17,-3.19593 -3.5635,-1.75776 -9.1445,-5.5758 -12.4024,-8.48453 -11.4104,-10.18754 -16.2882,-21.30347 -15.4088,-35.11457 l 0.4102,-6.44108 -8.0299,-0.61922 c -6.9862,-0.53874 -9.3587,-1.27959 -18.2541,-5.70027 l -10.2243,-5.08106 -5.7848,3.33959 c -11.4727,6.62313 -17.7537,8.64596 -29.3975,9.46758 -10.3627,0.73122 -19.6764,-1.6449 -27.7538,-7.08064 l -5.0769,-3.41646 -7.2783,5.22114 c -32.9045,23.60405 -57.8165,28.02586 -82.5184,14.64673 l -5.4143,-2.93251 -9.1729,4.87775 c -10.1404,5.39228 -21.747,10.22419 -31.6728,13.18569 -8.7309,2.60498 -27.0794,5.82779 -33.1794,5.82779 -11.8829,0 -26.9977,-3.61941 -37.9281,-9.08235 -3.1677,-1.58319 -5.9959,-2.42836 -6.5,-1.94248 -1.8006,1.73533 -22.1247,11.98029 -29.8925,15.06818 -16.2919,6.47644 -32.7074,9.98516 -47.0783,10.06271 -12.6703,0.0684 -21.8972,-1.78113 -32.7246,-6.55956 l -5.1122,-2.25615 -5.3379,3.41461 c -13.4987,8.63505 -29.4003,15.07632 -42.8528,17.35839 -10.4644,1.77517 -27.394,0.77574 -34.8942,-2.05996 -12.0441,-4.55366 -20.6169,-12.10421 -26.1798,-23.05802 l -2.009,-3.95604 -3.2685,6.25534 c -5.6235,10.76233 -10.984,19.57023 -15.8504,26.04404 -2.5808,3.43317 -6.4674,8.84135 -8.6371,12.01816 -9.7067,14.21292 -32.40817,32.12899 -53.92613,42.55877 -41.2246,19.98161 -66.72967,21.1642 -83.99911,3.89476 -7.34352,-7.34353 -10.00666,-14.28356 -10.07706,-26.2604 l -0.0529,-9 -11.5,-0.0106 c -9.05774,-0.008 -12.98659,-0.47935 -18.5,-2.21791 -9.16355,-2.88958 -18.05241,-8.25767 -25.19735,-15.21698 l -5.77156,-5.62161 -15.51555,10.41071 c -32.81548,22.01872 -64.61364,34.21993 -93.9429,36.04665 -20.80334,1.2957 -37.2916,-1.52289 -52.33835,-8.947 l -8.51911,-4.20334 -6.85759,5.50597 c -14.75667,11.84815 -28.67642,19.15963 -43.50086,22.84922 -9.2463,2.30127 -22.19138,2.69966 -28.9127,0.8898 -11.39316,-3.06786 -22.90674,-11.62015 -29.23812,-21.71808 -2.16112,-3.44677 -4.02919,-6.26685 -4.15126,-6.26685 -0.12208,0 -5.8619,5.57081 -12.75516,12.37957 -10.31292,10.18651 -13.89448,13.05235 -20.21746,16.17734 -7.13461,3.52611 -8.44977,3.82931 -18.38623,4.23871 -18.64015,0.768 -37.05899,-4.16003 -46.10975,-12.33684 -2.3629,-2.13474 -4.52296,-3.37777 -4.97835,-2.86484 -0.44243,0.49833 -5.02626,7.20606 -10.18628,14.90606 -11.5291,17.20419 -19.13096,25.021294 -29.07624,29.899545 -11.14495,5.466696 -24.18007,7.107083 -33.34518,4.196278 z m 17.41347,-27.162763 c 3.27296,-0.97197 6.89618,-3.05995 9.54218,-5.49894 5.07446,-4.67748 22.0036,-29.47096 45.02021,-65.93412 9.20017,-14.575 17.10716,-26.90286 17.5711,-27.39524 0.46393,-0.49238 0.83071,8.95762 0.81506,21 -0.0167,12.87476 0.47297,24.75001 1.18864,28.82458 1.86136,10.59724 4.5702,12.44137 21.62854,14.72434 11.98832,1.60443 15.86394,0.72857 22.82673,-5.15869 10.72506,-9.06838 36.97779,-39.04995 52.93573,-60.4545 l 6.55834,-8.79678 0.0349,18.87815 c 0.0498,26.97615 2.20594,37.21143 9.55141,45.34199 4.91765,5.44325 10.67872,7.47229 19.18341,6.75637 12.55959,-1.05727 24.44682,-6.66632 39.34864,-18.56686 17.29474,-13.81152 28.59364,-33.8392 23.48744,-41.63225 -3.40486,-5.19648 -11.78106,-2.82924 -24.5347,6.93385 -11.61497,8.89143 -19.42268,12.03279 -23.92204,9.62481 -4.56892,-2.44521 -4.84501,-8.2367 -2.97834,-62.47572 l 1.20096,-34.89596 -2.84191,-2.26606 c -3.66105,-2.91922 -12.70093,-5.44203 -19.5002,-5.44203 -4.88117,0 -5.64767,0.32524 -8.9344,3.79105 -1.97734,2.08507 -6.1214,7.59757 -9.20903,12.25 -3.08763,4.65242 -13.04773,19.70895 -22.13357,33.45895 -16.7201,25.30327 -24.58913,35.32989 -29.871,38.06125 -2.81984,1.4582 -2.94281,1.42001 -4.11944,-1.27909 -1.61334,-3.70092 -1.31293,-33.26297 0.6165,-60.6656 0.89665,-12.73458 1.12472,-21.79268 0.58449,-23.2136 -1.52942,-4.02267 -10.25038,-7.67746 -19.54309,-8.19014 l -8.07997,-0.44577 -5.2107,5.29354 c -2.86589,2.91145 -9.185,11.17636 -14.04246,18.36648 -9.2752,13.72934 -87.51279,141.53307 -91.69678,149.78978 -3.10566,6.12874 -3.46144,13.93626 -0.77135,16.92742 3.67969,4.09153 7.36643,4.64323 15.29471,2.28879 z m 554.2083,-32.82931 c 19.22049,-4.91108 41.70031,-16.15207 57.20201,-28.60375 9.27792,-7.45245 13.47356,-12.39741 27.46802,-32.37367 8.6441,-12.33885 19.8503,-37.19777 23.2727,-51.62633 1.2199,-5.1431 1.3462,-5.30533 1.9464,-2.5 1.2518,5.85134 5.3228,10.69646 9.93,11.81828 5.1212,1.24694 10.8769,-3.61723 30.877,-26.09416 7.0557,-7.9295 7.4745,-8.22412 11.6909,-8.22412 2.4053,0 4.6202,0.39976 4.9222,0.88835 0.302,0.4886 -1.8584,4.4261 -4.8008,8.75 -19.8433,29.15969 -19.427,52.14025 1.0217,56.3963 17.7279,3.68979 40.7421,-4.21748 62.0692,-21.32587 l 8.4658,-6.79122 4.2922,3.9564 c 7.5195,6.93127 17.6617,10.91621 30.0209,11.79549 20.4649,1.45595 51.5217,-9.64195 75.9476,-27.13927 l 8.9476,-6.40953 1.6754,2.7551 c 2.0079,3.30161 7.9299,8.09982 13.4294,10.88087 7.2804,3.68161 14.4955,5.24338 24.2237,5.24338 21.0865,0 44.8927,-8.45532 68.7867,-24.43114 9.769,-6.53161 11.4896,-7.38178 11.4896,-5.67701 0,0.49051 2.0891,3.2154 4.6424,6.05531 11.3223,12.59313 26.9805,14.32956 45.3947,5.0341 10.5154,-5.30812 26.4683,-17.14812 40.061,-29.7326 5.0907,-4.71302 5.9745,-5.20006 6.5324,-3.59958 10.337,29.65427 31.4272,30.36197 61.9543,2.07894 l 6.0847,-5.63747 2.1972,5.30121 c 3.2606,7.86677 7.3962,12.88305 13.3327,16.17175 4.583,2.53894 6.316,2.92925 12.8006,2.883 14.4668,-0.10318 29.1009,-7.50377 43.41,-21.95288 4.1745,-4.21533 7.59,-7.46605 7.59,-7.2238 0,0.24224 -4.0515,10.69951 -9.0032,23.23838 -16.6734,42.22009 -17.2398,48.50736 -5.1266,56.90181 2.191,1.51838 5.726,2.99439 7.8556,3.28002 6.0483,0.81126 9.2167,-2.60709 17.225,-18.584 l 6.8199,-13.60604 27.8646,-30.00176 c 41.4851,-44.66682 48.1574,-52.282 52.9353,-60.41555 7.9382,-13.51371 7.9456,-24.14481 0.018,-25.63208 -2.7685,-0.51938 -4.4521,-0.14232 -7.5479,1.69045 -3.5137,2.08018 -36.3478,36.85478 -46.5247,49.27431 -2.0891,2.54948 -4.0063,4.42742 -4.2606,4.17319 -0.2542,-0.25423 0.9238,-4.65316 2.6178,-9.7754 7.8191,-23.64287 10.9159,-45.17468 7.4473,-51.77914 -2.1427,-4.07983 -6.2309,-6.67628 -11.9528,-7.59124 -3.7914,-0.60627 -4.4628,-0.35144 -8.3666,3.17539 -2.3345,2.10902 -9.6739,10.82021 -16.31,19.3582 -24.4916,31.51108 -41.918,44.9419 -46.7053,35.99667 -2.1583,-4.03277 1.1198,-12.78058 10.2464,-27.34316 5.6951,-9.08725 7.768,-14.32314 7.768,-19.62075 0,-7.37125 -6.7566,-11.86374 -15.825,-10.52204 -19.1766,2.83726 -36.7906,18.5053 -44.6736,39.73827 -1.3072,3.52101 -4.0796,6.96957 -10.8778,13.53066 -13.5048,13.03368 -18.8909,14.81129 -24.0171,7.92647 -1.601,-2.15023 -2.1802,-4.63696 -2.4455,-10.5 -0.5531,-12.2183 1.4125,-17.69252 14.5451,-40.50837 13.4063,-23.29147 16.4762,-29.67139 19.3924,-40.30081 2.5641,-9.34622 2.3338,-19.13312 -0.5244,-22.29148 -3.6033,-3.98151 -10.1982,-6.3509 -16.3798,-5.88481 -14.7094,1.10906 -24.5354,11.86342 -36.057,39.46383 -6.8751,16.46973 -11.416,31.89627 -15.1468,51.45805 l -3.1242,16.3811 -4.1832,3.90591 c -14.648,13.6773 -34.3608,27.07959 -38.8474,26.41149 -2.7994,-0.41686 -4.2793,-2.91397 -3.5199,-5.93944 1.514,-6.03226 16.3074,-18.88742 33.6842,-29.27095 13.2921,-7.94268 14.3632,-9.84587 8.9873,-15.96873 -3.6654,-4.17458 -9.8682,-6.82282 -16.246,-6.93603 -3.9606,-0.0703 -7.0165,1.0405 -18.222,6.62371 -26.9503,13.42807 -51.2005,32.42103 -57.8283,45.29163 -2.8306,5.49673 -27.5652,22.51615 -39.1098,26.91066 -5.0964,1.94 -13.6762,2.54583 -16.9735,1.19852 -1.5454,-0.63146 0.288,-2.20622 10,-8.58932 21.3747,-14.0483 36.7424,-29.61297 41.3944,-41.92496 2.469,-6.53423 2.4946,-10.52215 0.1016,-15.79109 -3.6781,-8.09831 -10.1218,-10.94258 -23.0117,-10.15745 -25.3125,1.54178 -66.5674,27.63562 -83.1967,52.62217 -7.2345,10.8703 -27.2207,26.73345 -44.235,35.10957 -6.9359,3.41453 -17.0723,4.98499 -21.4205,3.31873 -2.0266,-0.77659 -0.9929,-1.70721 10,-9.00282 19.9053,-13.21047 34.0128,-26.98533 39.9144,-38.97333 2.65,-5.38281 3.0303,-7.11108 2.6677,-12.12341 -0.5104,-7.05639 -3.1946,-11.30207 -9.1561,-14.48266 -6.5499,-3.49446 -18.3408,-3.05381 -30.721,1.14811 -25.0191,8.49161 -54.3436,29.56359 -66.9256,48.09137 -4.629,6.81657 -7.7707,9.88289 -21.4025,20.8891 -13.3193,10.75396 -18.9289,12.76212 -22.009,7.87904 -1.1678,-1.85126 1.1258,-5.59932 11.3834,-18.6026 12.1816,-15.44215 14.6105,-22.98097 9.7351,-30.21554 -3.0072,-4.46241 -8.2826,-7.91729 -12.1241,-7.94011 -1.7061,-0.0101 -8.6152,0.98062 -15.3534,2.20168 l -12.2513,2.22012 -4.0469,-3.95168 c -3.8356,-3.74535 -4.3718,-3.95169 -10.2697,-3.95169 -9.2417,0 -17.344,4.33839 -29.1106,15.58735 -12.5652,12.01234 -24.4732,29.65053 -24.5832,36.41265 -0.024,1.49265 -0.445,1.16299 -1.6587,-1.29952 -3.7521,-7.61336 -14.2195,-13.18655 -22.0384,-11.73393 -5.7708,1.07212 -15.57408,6.63976 -28.2899,16.06679 -25.9579,19.24423 -61.3357,32.58546 -87,32.80834 -8.54177,0.0742 -13.60353,-1.91385 -14.55828,-5.71784 -2.91734,-11.62362 33.38146,-47.2619 65.73334,-64.53721 7.3094,-3.90309 7.36101,-3.91375 24.32678,-5.02621 20.21439,-1.32547 33.19226,-3.79542 42.30976,-8.05238 11.1175,-5.19076 16.1884,-11.29601 16.1884,-19.4905 0,-8.9311 -4.5118,-14.56939 -12.9312,-16.15991 -8.5109,-1.60782 -32.49809,4.60448 -57.0688,14.77993 -38.61428,15.99129 -80.33525,41.16133 -106.11075,64.01605 -7.94365,7.04351 -20.25725,21.45322 -22.68753,26.54957 -1.85768,3.89559 -2.39797,4.04785 -3.71459,1.04682 -0.75763,-1.72689 -1.95713,-2.32061 -5.15928,-2.55369 -5.25805,-0.38274 -12.45102,3.13267 -28.32512,13.84327 -16.0585,10.83501 -27.81606,17.34955 -39.49096,21.88083 -13.10608,5.08676 -19.7842,6.42378 -32.51177,6.50916 -12.0944,0.0811 -18.40443,-1.74463 -22.38685,-6.47746 -3.66538,-4.35607 -4.02407,-7.7944 -1.57297,-15.07843 4.36267,-12.9647 18.37348,-29.78329 33.95982,-40.76538 12.85593,-9.05826 14.16733,-9.54236 25,-9.22865 10.61727,0.30747 21.74963,-1.61185 28.60912,-4.93248 11.27911,-5.46012 19.24052,-16.64375 20.0692,-28.1918 0.52411,-7.30361 -1.495,-11.57497 -6.75814,-14.29665 -2.76019,-1.42734 -4.02171,-1.48091 -9.79422,-0.41591 -14.15188,2.61097 -37.27435,11.83651 -56.38426,22.49654 -46.94666,26.18811 -79.87161,59.901 -87.33283,89.42282 -2.38862,9.45104 -1.58726,21.93264 1.83629,28.60129 7.32413,14.26649 23.98908,21.14386 48.75484,20.12037 20.09731,-0.83056 35.57419,-4.98742 56.5,-15.17507 22.44061,-10.92512 46.01019,-27.20895 62.6262,-43.2674 l 9.6262,-9.30319 0.42717,8.78091 c 0.32621,6.70557 1.04334,10.12223 3.03421,14.45607 5.15326,11.21792 14.67769,18.58919 26.93837,20.8485 9.79507,1.80496 34.4272,-2.76768 56.73265,-10.5317 24.24066,-8.43762 44.71684,-19.05712 66.46792,-34.47205 3.21899,-2.28129 6.01399,-3.98653 6.2111,-3.78941 0.19712,0.19711 -2.74129,6.68484 -6.52979,14.41717 l -6.88818,14.05877 -16.32292,8.02925 c -32.95486,16.21049 -51.53767,31.30308 -54.87866,44.57135 -0.99952,3.96946 -0.90451,5.10938 0.69956,8.39314 2.07977,4.25756 7.06617,7.29583 11.97794,7.29828 1.71698,8.5e-4 7.34198,-1.07676 12.5,-2.3947 z m 276.48523,-138.18554 c -2.3884,-6.22409 1.666,-15.66082 10.129,-23.57542 9.2682,-8.6676 17.1836,-11.14585 21.7869,-6.82131 3.3929,3.18745 3.117,5.25658 -1.2729,9.54866 -4.0162,3.92667 -28.2377,22.42986 -29.3618,22.42986 -0.3708,0 -0.9474,-0.7118 -1.2812,-1.58179 z m 121.0051,-13.98672 c -2.5322,-6.59868 1.5259,-16.61689 9.8324,-24.2736 4.8899,-4.50733 13.5685,-9.13148 17.1691,-9.14812 2.2284,-0.0103 7.3864,4.46175 7.3864,6.40409 0,2.28929 -3.0442,5.35092 -13.1669,13.24238 -17.5464,13.67884 -20.5178,15.6077 -21.221,13.77525 z m -694.3166,51.1723 c 7.98521,-15.45456 28.88957,-39.01499 47.5608,-53.60379 l 8.31891,-6.5 -35.24131,-0.26296 c -19.38272,-0.14463 -35.39909,-0.10518 -35.59194,0.0877 -0.19285,0.19284 0.3249,1.70476 1.15054,3.35981 2.94313,5.89963 3.41142,12.56194 2.48848,35.403 -0.4981,12.32686 -0.92258,24.52843 -0.9433,27.1146 l -0.0377,4.70212 4.31252,-1.59834 c 3.81331,-1.41331 4.73741,-2.42066 7.98298,-8.70211 z m 116.53394,5.75457 c 7.63238,-3.02254 20.85245,-10.03463 21.79558,-11.56065 0.4269,-0.69073 -1.78062,-0.79435 -6.74522,-0.31662 -6.12502,0.5894 -8.25452,1.30491 -12.52434,4.20811 -5.98677,4.07063 -12.32461,10.3108 -10.47218,10.3108 0.70158,0 4.27736,-1.18874 7.94616,-2.64164 z m 99.10056,-62.63043 4.43,-3.72793 h -7.66095 c -7.54962,0 -7.6694,0.04 -8.24301,2.75 -0.32014,1.5125 -1.67734,5.85751 -3.016,9.65558 l -2.43394,6.90557 6.24695,-5.92764 c 3.43582,-3.26021 8.24045,-7.60522 10.67695,-9.65558 z m -315.42543,3.16341 4.45391,-6.39134 -5.59262,-0.30329 c -3.07594,-0.1668 -5.7431,-0.1528 -5.92702,0.0311 -0.18392,0.18392 0.1811,3.3439 0.81116,7.02217 0.63006,3.67827 1.29296,6.54037 1.47311,6.36023 0.18014,-0.18015 2.3318,-3.20365 4.78146,-6.71889 z m -67.22302,-31.00513 c 5.12176,-1.741 7.62933,-2.00947 14.21845,-1.52229 4.4,0.32532 10.475,1.27118 13.5,2.10192 4.7524,1.30511 20.70815,1.51204 117.38447,1.52229 l 111.88447,0.0119 13.11553,-6.47582 c 33.66515,-16.62223 60.22648,-23.49831 73.72085,-19.08452 9.63105,3.15015 18.77022,10.96324 23.57052,20.15047 l 2.82416,5.40512 24.02877,0.002 24.02878,0.002 9.47122,-5.64439 c 30.00053,-17.87884 70.49478,-36.07191 94.97123,-42.66823 30.7015,-8.27397 47.225,-6.0291 61.8141,8.398 5.742,5.67818 11.1429,17.08678 11.1751,23.6056 0.01,1.20504 0.3595,2.40649 0.7857,2.66988 0.4261,0.26339 3.7916,-0.98607 7.4787,-2.77657 13.1144,-6.36851 30.1461,-7.2948 41.1872,-2.24003 5.4385,2.48984 5.496,2.49389 14.1637,0.99811 6.8192,-1.17678 10.0227,-1.27025 14.7993,-0.43181 8.1999,1.43934 17.5435,6.19463 23.1108,11.76192 l 4.5787,4.57873 7.7034,-5.94367 c 10.7999,-8.33293 18.2168,-13.1582 29.2033,-18.99901 19.6166,-10.42892 36.1958,-15.43784 50.9368,-15.38908 14.8871,0.0493 25.4641,4.26822 35.6503,14.22032 l 5.0871,4.97018 10.9129,-7.37342 c 11.418,-7.7147 31.6421,-18.10966 41.9603,-21.56715 17.0193,-5.70293 33.251,-6.46164 44.9106,-2.09923 7.7513,2.90014 17.0979,9.40568 20.8538,14.51485 1.7535,2.38535 3.4901,4.35455 3.859,4.376 0.3689,0.0215 4.1939,-2.14294 8.5,-4.80975 9.2109,-5.70445 25.5645,-14.13107 33.2817,-17.14924 2.9989,-1.17285 8.8213,-2.4406 12.9387,-2.81723 l 7.4863,-0.68478 3.7723,-10 c 2.0748,-5.5 3.8034,-10.10671 3.8413,-10.23713 0.5505,-1.89362 4.8704,-11.32889 7.6748,-16.76287 14.3956,-27.89348 32.7833,-41.58562 55.9337,-41.65014 10.2653,-0.0286 18.8199,2.57913 27.5206,8.38923 15.6107,10.42447 20.3509,26.45642 15.264,51.62523 -0.6416,3.17445 -0.5624,3.30144 1.402,2.25012 3.5385,-1.89376 16.005,-4.11444 23.0977,-4.11444 11.2689,0 23.1802,4.90598 30.0538,12.37841 l 2.4377,2.65008 3.3123,-3.21041 3.3123,-3.21041 v -174.25462 c 0,-122.55221 -0.3255,-175.82692 -1.097,-179.55383 -1.5004,-7.24817 -6.9906,-18.34186 -11.8498,-23.94383 -5.4349,-6.26588 -13.2178,-11.25341 -22.3381,-14.31499 l -7.5677,-2.5404 -599.8237,0.0211 -599.8237,0.0211 -6.77614,2.39144 c -12.98321,4.58204 -22.96581,13.15976 -28.82644,24.76959 -6.27788,12.43641 -5.89742,-0.87242 -5.89742,206.29679 0,206.76416 -0.36554,193.66524 5.75788,206.32904 5.52415,11.42445 20.24294,23.09662 32.86055,26.0588 2.13487,0.50119 13.45827,0.95646 25.16312,1.01171 19.19468,0.0906 21.89132,-0.10683 27.5,-2.01334 z m 265.77725,-80.44191 c -13.06492,-2.83296 -24.08431,-10.28295 -32.10704,-21.70691 -6.23201,-8.87405 -8.66925,-15.45353 -10.00372,-27.00555 -1.60033,-13.85344 -0.7628,-230.69254 0.91425,-236.70403 2.75231,-9.86579 7.24965,-17.35257 15.03432,-25.02781 8.38197,-8.26413 14.72295,-12.14492 23.63835,-14.46709 8.29034,-2.15936 72.28231,-2.22321 80.33408,-0.0802 17.22263,4.58397 31.49338,18.07146 38.03262,35.9452 l 2.59834,7.10204 0.27802,115.67961 c 0.30896,128.55755 0.5352,123.64581 -6.33841,137.61022 -7.11348,14.45172 -22.60118,26.36581 -37.87327,29.13447 -9.03402,1.63776 -66.44672,1.26789 -74.50754,-0.48 z m 70.38584,-14.42934 c 16.40006,-2.68558 29.77704,-16.51559 32.59048,-33.69419 1.06434,-6.49878 1.36506,-182.32077 0.31183,-182.32077 -0.35918,0 -19.00767,9.45 -41.4411,21 -22.43343,11.55 -41.03956,21 -41.34695,21 -0.3074,0 -0.5589,-17.55 -0.5589,-39 v -39 h 18 18 v 16.504 16.504 l 24,-12.008 24,-12.008 -0.008,-6.746 c -0.0242,-21.58648 -7.56589,-35.97229 -22.7866,-43.46543 l -6.6638,-3.28057 H 761.79393 725.2729 l -6.22237,2.87417 c -7.55478,3.48961 -15.34813,11.35384 -18.86574,19.03732 -1.47285,3.21713 -2.86785,8.80182 -3.43527,13.75265 -1.39773,12.19535 -1.2728,164.83586 0.13491,164.83586 0.60421,0 19.21275,-9.225 41.35233,-20.5 22.13957,-11.275 40.5423,-20.5 40.89496,-20.5 0.35265,0 0.64118,20.7 0.64118,46 v 46 h -18 -18 v -23.5 c 0,-12.925 -0.3375,-23.4925 -0.75,-23.48332 -0.4125,0.009 -11.1,5.35227 -23.75,11.87356 l -23,11.85689 -0.2845,11.31318 c -0.38842,15.44586 1.11332,27.79389 4.20029,34.53673 5.32281,11.62654 17.01104,20.63493 29.08421,22.41588 7.54402,1.11285 58.15157,1.11443 64.94464,0.002 z m -29.44464,-86.48358 c 0,-24.77919 -0.1117,-26.42879 -1.75,-25.84476 -4.2253,1.50626 -4.25,1.66181 -4.25,26.76916 0,13.31599 0.3,24.51089 0.66667,24.87755 0.36666,0.36667 1.71666,0.66667 3,0.66667 h 2.33333 z m -1.93426,-113.56656 c 1.799,-0.9628 1.93426,-2.25651 1.93426,-18.5 v -17.46482 h -3 -3 v 18.5 c 0,19.06971 0.11821,19.57747 4.06574,17.46482 z m 82.94904,76.28518 c 0.0161,-152.12235 -0.20204,-145.99624 5.60877,-157.51916 7.31884,-14.51336 20.39737,-25.4175 35.06975,-29.23917 8.64239,-2.25106 72.63948,-2.16848 80.3752,0.10371 17.44792,5.12493 30.94467,18.16676 37.1008,35.85034 l 2.8039,8.05428 0.013,141.25 0.013,141.25 h -39 -39 v -57.5 c 0,-34.25222 -0.37124,-57.5 -0.91821,-57.5 -4.2192,0 -4.08179,-1.95612 -4.08179,58.10699 v 56.89301 h -39 -39 z m 62.98522,70.75 c 0,-29.7 0.35395,-54 0.78655,-54 0.4326,0 7.9701,-3.81342 16.75,-8.47426 8.7799,-4.66085 16.30095,-8.48585 16.71345,-8.5 0.4125,-0.0142 0.75,28.09926 0.75,62.47426 v 62.5 h 24 24 l -0.0108,-132.25 c -0.0116,-141.43925 0.18312,-135.61145 -4.86105,-145.49884 -2.59557,-5.08775 -9.83128,-12.35535 -15.39974,-15.46762 -8.32752,-4.65434 -10.99723,-4.91372 -47.22839,-4.58862 l -34,0.30508 -6.5,3.1252 c -10.89297,5.23735 -18.31674,14.45753 -21.63865,26.8748 -1.08433,4.05323 -1.33986,29.8527 -1.34948,136.25 l -0.0119,131.25 h 24 24 z m 0,-153.12332 v -45.87668 h 17.5 17.5 v 36.75713 36.75713 l -17.5,9.11955 -17.5,9.11955 z m 20,-5.53719 v -24.33949 h -2.5 -2.5 v 25.47856 25.47856 l 2.5,-1.13907 2.5,-1.13908 z m 125,226.56326 c -18.1594,-3.54357 -33.795,-17.96764 -40.7309,-37.57492 l -2.7691,-7.82783 v -117.5 -117.5 l 2.2179,-7 c 5.9037,-18.63273 20.7761,-33.50178 37.9264,-37.91787 5.0218,-1.29308 12.4283,-1.58213 40.5399,-1.58213 37.4071,0 41.1749,0.42301 51.2409,5.75292 7.7341,4.09512 19.6884,16.60363 23.4993,24.5887 6.2871,13.17344 6.0392,6.67023 6.0582,158.90838 l 0.017,138.75 -56.75,-0.10957 c -31.2125,-0.0603 -58.775,-0.50471 -61.25,-0.98768 z m 103,-112.50974 c 0,-83.34793 -0.2132,-98.52518 -1.3777,-98.07833 -0.7577,0.29076 -15.7202,7.96566 -33.25,17.05533 l -31.8723,16.52667 -0.2661,27.06978 -0.2661,27.06979 8.9961,-4.51813 c 4.9479,-2.48496 9.2301,-4.51812 9.5161,-4.51812 0.286,0 0.52,16.2 0.52,36 v 36 h -18 -18 v -103.5 -103.5 h 17.9839 17.984 l 0.266,26.99488 0.2661,26.99488 23.5,-12.3677 23.5,-12.3677 -0.072,-21.37718 c -0.066,-19.79998 -0.2402,-21.80832 -2.3569,-27.22085 -4.4301,-11.32815 -14.7231,-21.04565 -25.6597,-24.225 -4.4641,-1.29773 -10.9395,-1.50059 -39.624,-1.24129 l -34.2878,0.30996 -5.7358,2.68817 c -6.6381,3.11105 -14.5668,10.60885 -17.8958,16.92313 -5.5575,10.54121 -5.2424,3.70313 -5.6105,121.76211 -0.2137,68.54652 0.032,112.71142 0.6574,118.31581 1.207,10.81133 4.017,17.36143 10.5476,24.58647 5.3901,5.96322 11.7478,10.04541 18.4664,11.85694 3.3097,0.89237 18.0207,1.251 53.3207,1.29988 l 48.75,0.0675 z m -63,21.13837 c 0,-15.25538 -0.1289,-16.42265 -1.75,-15.84476 -4.0639,1.44872 -4.25,2.183 -4.25,16.76916 0,7.81599 0.3,14.51089 0.6667,14.87755 0.3666,0.36667 1.7166,0.66667 3,0.66667 h 2.3333 z m 0,-131.69189 v -27.83949 h -3 -3 v 28.33333 c 0,15.58334 0.2699,28.60323 0.5998,28.93311 0.3298,0.32987 1.6798,0.10764 3,-0.49385 l 2.4002,-1.09362 z m 123.2627,222.6464 c -19.0158,-4.13134 -35.9748,-21.43411 -40.7135,-41.53878 -1.321,-5.60425 -1.5216,-24.65198 -1.5344,-145.69711 l -0.015,-139.25 h 39 39 v 126 126 h 2.5 2.5 v -126 -126 h 39 39 v 140.2899 c 0,121.01915 -0.2045,141.07521 -1.4891,146.00691 -3.9367,15.11414 -15.1777,29.00223 -28.9025,35.70877 -4.7893,2.34026 -10.7691,4.37495 -14.6084,4.9707 -9.926,1.54023 -66.1106,1.16657 -73.7373,-0.49039 z m 81.1374,-17.43384 c 8.3528,-4.24132 16.5967,-12.95113 19.8361,-20.95722 l 2.2638,-5.59483 0.2643,-133.75 0.2642,-133.75 h -24.0142 -24.0143 v 126 126 h -17.5 -17.5 v -126 -126 h -24 -24 v 129.86351 c 0,83.05111 0.3632,131.77883 1.0077,135.17684 3.0435,16.04865 16.0749,29.20732 31.6428,31.95195 2.6672,0.47023 19.2742,0.77683 36.9044,0.68134 l 32.0549,-0.17364 z"
         id="path16" />
    </g>
  </g>
</svg>
