<?xml version="1.0" encoding="UTF-8" standalone="no"?>
<!-- Created with Inkscape (http://www.inkscape.org/) -->

<svg
   width="90.081268mm"
   height="90.115608mm"
   viewBox="0 0 90.081268 90.115608"
   version="1.1"
   id="svg1"
   xml:space="preserve"
   inkscape:version="1.3 (0e150ed6c4, 2023-07-21)"
   sodipodi:docname="logotipo.svg"
   xmlns:inkscape="http://www.inkscape.org/namespaces/inkscape"
   xmlns:sodipodi="http://sodipodi.sourceforge.net/DTD/sodipodi-0.dtd"
   xmlns="http://www.w3.org/2000/svg"
   xmlns:svg="http://www.w3.org/2000/svg"><sodipodi:namedview
     id="namedview1"
     pagecolor="#ffffff"
     bordercolor="#000000"
     borderopacity="0.25"
     inkscape:showpageshadow="2"
     inkscape:pageopacity="0.0"
     inkscape:pagecheckerboard="0"
     inkscape:deskcolor="#d1d1d1"
     inkscape:document-units="mm"
     inkscape:zoom="0.49575348"
     inkscape:cx="153.302"
     inkscape:cy="176.49901"
     inkscape:window-width="2400"
     inkscape:window-height="1271"
     inkscape:window-x="2391"
     inkscape:window-y="-9"
     inkscape:window-maximized="1"
     inkscape:current-layer="layer1" /><defs
     id="defs1" /><g
     inkscape:label="Capa 1"
     inkscape:groupmode="layer"
     id="layer1"
     transform="translate(-44.093296,-35.247872)"><g
       id="g2"
       transform="translate(-16.084933,-49.650545)"><path
         style="fill:#5e17ea"
         d="m 60.178229,161.59744 c 3.3e-4,-1.62984 0.03356,-2.26861 0.07384,-1.41949 0.04028,0.84911 0.04001,2.18261 -6.01e-4,2.96333 -0.04061,0.78072 -0.07357,0.086 -0.07323,-1.54384 z m 34.629822,-13.09742 c 0,-0.0439 0.166687,-0.21064 0.370416,-0.37042 0.335715,-0.26328 0.343202,-0.2558 0.07992,0.0799 -0.276515,0.35258 -0.450332,0.46471 -0.450332,0.2905 z m 20.988419,-0.97842 c 0,-0.29104 0.0481,-0.4101 0.10677,-0.26458 0.0587,0.14552 0.0587,0.38364 0,0.52916 -0.0587,0.14553 -0.10677,0.0265 -0.10677,-0.26458 z m -27.550087,-7.06491 c 0,-0.044 0.166688,-0.21065 0.370417,-0.37042 0.335715,-0.26329 0.343202,-0.2558 0.07992,0.0799 -0.276515,0.35259 -0.450333,0.46471 -0.450333,0.29051 z m 20.108337,-20.32 c 0,-0.044 0.16669,-0.21065 0.37042,-0.37042 0.33571,-0.26329 0.3432,-0.2558 0.0799,0.0799 -0.27651,0.35259 -0.45033,0.46471 -0.45033,0.29051 z"
         id="path3" /><path
         style="fill:#5d16ea"
         d="m 68.878882,174.79056 c -1.487554,-0.28162 -3.849291,-1.46486 -5.071902,-2.54105 -1.331261,-1.17182 -2.548201,-3.06233 -3.08039,-4.78535 -0.412308,-1.3349 -0.420125,-2.04164 -0.415745,-37.5861 l 0.0045,-36.225625 0.493645,-1.398391 c 1.137259,-3.221606 3.653546,-5.703469 6.90576,-6.811286 l 1.375833,-0.468657 35.030827,-0.06183 c 23.6487,-0.04174 35.58104,0.01054 36.72417,0.160906 4.6241,0.608227 8.4542,4.314546 9.19388,8.896754 0.1486,0.920555 0.22141,12.897869 0.22002,36.194999 -0.002,29.07513 -0.0511,35.0504 -0.29918,36.22083 -0.87479,4.12707 -4.22099,7.47327 -8.34806,8.34806 -1.1732,0.24867 -7.12847,0.29384 -36.53833,0.2771 -21.124931,-0.012 -35.5587,-0.0999 -36.194993,-0.22036 z m 51.972238,-12.71687 c 1.68131,-0.84784 1.68456,-0.86601 1.68494,-9.41917 l 3.3e-4,-7.46125 h 1.05833 1.05833 v 7.41513 c 0,8.08654 0.0467,8.44906 1.18513,9.19497 1.2262,0.80344 3.45035,0.77282 4.42404,-0.0609 1.08205,-0.92651 1.05171,-0.70676 1.16417,-8.43268 l 0.10583,-7.27082 1.20689,1.77006 1.2069,1.77005 0.0631,5.51941 0.0631,5.5194 0.617,0.64363 c 0.78641,0.82036 1.80012,1.15259 3.12761,1.02503 1.11119,-0.10677 1.87704,-0.55335 2.59231,-1.51161 0.41669,-0.55824 0.43636,-0.85429 0.43525,-6.54859 -0.001,-5.69949 -0.0224,-6.01643 -0.47925,-7.14839 -1.31172,-3.24975 -5.42991,-8.18514 -7.22424,-8.65778 -1.2846,-0.33838 -15.11897,-0.19423 -15.95934,0.16629 -1.34236,0.57588 -1.38054,1.05016 -1.25976,15.64818 l 0.0529,6.39555 0.62837,0.71568 c 1.07336,1.22249 2.71074,1.50301 4.24803,0.72781 z m -35.462237,-4.47407 c 0.800116,-0.37889 2.194838,-1.65656 5.71643,-5.23668 2.561953,-2.60453 12.668617,-12.83176 22.459257,-22.72717 12.32946,-12.4614 17.95075,-18.28445 18.28781,-18.94417 0.6086,-1.19119 0.66481,-2.90192 0.1404,-4.27279 -1.00545,-2.62838 -4.47029,-3.85644 -7.09812,-2.51582 -1.11041,0.56649 -45.680761,45.63154 -46.32868,46.8429 -0.579804,1.08401 -0.651703,3.15001 -0.15137,4.34959 1.09261,2.61962 4.299162,3.77095 6.974273,2.50414 z m -10.49058,-39.03773 c 0.283849,-0.21025 0.712474,-0.64515 0.952501,-0.96644 0.418862,-0.56067 0.43894,-0.88997 0.499299,-8.18901 l 0.06289,-7.60484 h 0.932558 0.932558 l 0.06289,7.57683 c 0.05658,6.81715 0.100322,7.63391 0.436252,8.14622 1.363489,2.07936 4.971959,1.96985 6.082469,-0.18458 0.25627,-0.49718 0.33791,-1.96067 0.423334,-7.58872 l 0.105833,-6.97276 1.11125,1.69336 1.11125,1.69336 0.0046,5.06773 c 0.0042,4.56125 0.04578,5.15835 0.416185,5.97446 0.736773,1.62332 3.001563,2.20954 4.8789,1.26285 1.667723,-0.84098 1.706535,-1.03026 1.638447,-7.99042 -0.06802,-6.95326 0.02382,-6.56115 -2.377693,-10.15152 -1.877553,-2.807028 -3.28748,-4.317309 -4.655078,-4.986413 l -1.142088,-0.558771 -7.487618,0.0696 c -6.701697,0.0623 -7.546913,0.108485 -8.052547,0.440021 -1.116666,0.732182 -1.104194,0.613723 -1.175574,11.165423 -0.06887,10.18103 -0.0133,11.00476 0.791576,11.73316 1.08587,0.9827 3.364944,1.17253 4.447761,0.37046 z"
         id="path2" /></g></g></svg>
